<svg height="112" viewBox="0 0 112 112" width="112" xmlns="http://www.w3.org/2000/svg" xmlns:xlink="http://www.w3.org/1999/xlink"><linearGradient id="a" x1="50%" x2="50%" y1="94.444934%" y2="0%"><stop offset="0" stop-color="#c822ff"/><stop offset="1" stop-color="#1a6dff"/></linearGradient><path d="m7.72413793 0c-4.24676772 0-7.72413793 3.48901319-7.72413793 7.75v77.5c0 4.2609868 3.47737021 7.75 7.72413793 7.75h94.62069007c3.28125 0 5.793103-2.5202632 5.793103-5.8125v-19.7609868c2.315733-.7719717 3.862069-2.90625 3.862069-5.4265132v-15.5c0-2.5202632-1.546336-4.6545415-3.862069-5.4265132v-19.7609868c0-3.2922368-2.511853-5.8125-5.793103-5.8125h-9.6551728v-9.6875c0-3.29223681-2.511853-5.8125-5.7931035-5.8125zm0 3.875h79.17241377c1.1616389 0 1.9310345.77197363 1.9310345 1.9375v9.6875h-81.10344827c-2.12715421 0-3.86206896-1.7407217-3.86206896-3.875v-3.875c0-2.13427637 1.73491475-3.875 3.86206896-3.875zm1.93103448 3.875c-1.16163696 0-1.93103448.77197362-1.93103448 1.9375 0 1.1655283.76939752 1.9375 1.93103448 1.9375h50.20689659c1.1616389 0 1.9310344-.7719717 1.9310344-1.9375 0-1.16552638-.7693955-1.9375-1.9310344-1.9375zm57.93103449 0c-1.161637 0-1.9310345.77197362-1.9310345 1.9375 0 1.1655283.7693975 1.9375 1.9310345 1.9375h7.7241379c1.1616389 0 1.9310345-.7719717 1.9310345-1.9375 0-1.16552638-.7693956-1.9375-1.9310345-1.9375zm-63.72413793 10.4670415c1.16163889.7719717 2.51185296 1.1579585 3.86206896 1.1579585h94.62069007c1.161638 0 1.931034.7719736 1.931034 1.9375v19.375h-21.2413792c-5.4084047 0-9.6551725 4.2609868-9.6551725 9.6875v7.75c0 5.4265132 4.2467678 9.6875 9.6551725 9.6875h21.2413792v19.375c0 1.1655283-.769396 1.9375-1.931034 1.9375h-94.62069007c-2.12715421 0-3.86206896-1.7407217-3.86206896-3.875zm7.72413793 5.0329585c-1.161637 0-1.93103449.7719736-1.93103449 1.9375v3.875c0 1.1655283.76939749 1.9375 1.93103449 1.9375 1.1616389 0 1.9310345-.7719717 1.9310345-1.9375v-3.875c0-1.1655264-.7693956-1.9375-1.9310345-1.9375zm9.6551724 0c-1.161637 0-1.9310345.7719736-1.9310345 1.9375v3.875c0 1.1655283.7693975 1.9375 1.9310345 1.9375 1.1616389 0 1.9310345-.7719717 1.9310345-1.9375v-3.875c0-1.1655264-.7693956-1.9375-1.9310345-1.9375zm9.6551724 0c-1.1616369 0-1.9310345.7719736-1.9310345 1.9375v3.875c0 1.1655283.7693976 1.9375 1.9310345 1.9375 1.1616389 0 1.9310345-.7719717 1.9310345-1.9375v-3.875c0-1.1655264-.7693956-1.9375-1.9310345-1.9375zm9.6551724 0c-1.1616369 0-1.9310344.7719736-1.9310344 1.9375v3.875c0 1.1655283.7693975 1.9375 1.9310344 1.9375 1.1616389 0 1.9310345-.7719717 1.9310345-1.9375v-3.875c0-1.1655264-.7693956-1.9375-1.9310345-1.9375zm9.6551725 0c-1.161637 0-1.9310345.7719736-1.9310345 1.9375v3.875c0 1.1655283.7693975 1.9375 1.9310345 1.9375 1.1616388 0 1.9310344-.7719717 1.9310344-1.9375v-3.875c0-1.1655264-.7693956-1.9375-1.9310344-1.9375zm9.6551724 0c-1.161637 0-1.9310345.7719736-1.9310345 1.9375v3.875c0 1.1655283.7693975 1.9375 1.9310345 1.9375 1.1616389 0 1.9310344-.7719717 1.9310344-1.9375v-3.875c0-1.1655264-.7693955-1.9375-1.9310344-1.9375zm9.6551724 0c-1.161637 0-1.9310345.7719736-1.9310345 1.9375v3.875c0 1.1655283.7693975 1.9375 1.9310345 1.9375 1.1616389 0 1.9310345-.7719717 1.9310345-1.9375v-3.875c0-1.1655264-.7693956-1.9375-1.9310345-1.9375zm9.6551724 0c-1.161637 0-1.9310345.7719736-1.9310345 1.9375v3.875c0 1.1655283.7693975 1.9375 1.9310345 1.9375 1.1616389 0 1.9310345-.7719717 1.9310345-1.9375v-3.875c0-1.1655264-.7693956-1.9375-1.9310345-1.9375zm9.6551724 0c-1.161637 0-1.9310345.7719736-1.9310345 1.9375v3.875c0 1.1655283.7693975 1.9375 1.9310345 1.9375 1.1616389 0 1.9310345-.7719717 1.9310345-1.9375v-3.875c0-1.1655264-.7693956-1.9375-1.9310345-1.9375zm9.6551724 0c-1.1616369 0-1.9310345.7719736-1.9310345 1.9375v3.875c0 1.1655283.7693976 1.9375 1.9310345 1.9375 1.1616389 0 1.9310344-.7719717 1.9310344-1.9375v-3.875c0-1.1655264-.7693955-1.9375-1.9310344-1.9375zm-15.4482758 21.3125h23.1724142c1.161638 0 1.931034.7719736 1.931034 1.9375v15.5c0 1.1655283-.769396 1.9375-1.931034 1.9375h-23.1724142c-3.2812505 0-5.7931035-2.5202632-5.7931035-5.8125v-7.75c0-3.2922368 2.511853-5.8125 5.7931035-5.8125zm3.8620689 3.875c-3.2812505 0-5.7931034 2.5202632-5.7931034 5.8125s2.5118529 5.8125 5.7931034 5.8125 5.7931035-2.5202632 5.7931035-5.8125-2.511853-5.8125-5.7931035-5.8125zm0 3.0954585c1.5463357 0 2.7079746 1.1655283 2.7079746 2.7170415s-1.1616389 2.7170415-2.7079746 2.7170415-2.7079746-1.1655283-2.7079746-2.7170415 1.1616389-2.7170415 2.7079746-2.7170415zm-75.3103448 25.9670415c-1.161637 0-1.93103449.7719736-1.93103449 1.9375v3.875c0 1.1655283.76939749 1.9375 1.93103449 1.9375 1.1616389 0 1.9310345-.7719717 1.9310345-1.9375v-3.875c0-1.1655264-.7693956-1.9375-1.9310345-1.9375zm9.6551724 0c-1.161637 0-1.9310345.7719736-1.9310345 1.9375v3.875c0 1.1655283.7693975 1.9375 1.9310345 1.9375 1.1616389 0 1.9310345-.7719717 1.9310345-1.9375v-3.875c0-1.1655264-.7693956-1.9375-1.9310345-1.9375zm9.6551724 0c-1.1616369 0-1.9310345.7719736-1.9310345 1.9375v3.875c0 1.1655283.7693976 1.9375 1.9310345 1.9375 1.1616389 0 1.9310345-.7719717 1.9310345-1.9375v-3.875c0-1.1655264-.7693956-1.9375-1.9310345-1.9375zm9.6551724 0c-1.1616369 0-1.9310344.7719736-1.9310344 1.9375v3.875c0 1.1655283.7693975 1.9375 1.9310344 1.9375 1.1616389 0 1.9310345-.7719717 1.9310345-1.9375v-3.875c0-1.1655264-.7693956-1.9375-1.9310345-1.9375zm9.6551725 0c-1.161637 0-1.9310345.7719736-1.9310345 1.9375v3.875c0 1.1655283.7693975 1.9375 1.9310345 1.9375 1.1616388 0 1.9310344-.7719717 1.9310344-1.9375v-3.875c0-1.1655264-.7693956-1.9375-1.9310344-1.9375zm9.6551724 0c-1.161637 0-1.9310345.7719736-1.9310345 1.9375v3.875c0 1.1655283.7693975 1.9375 1.9310345 1.9375 1.1616389 0 1.9310344-.7719717 1.9310344-1.9375v-3.875c0-1.1655264-.7693955-1.9375-1.9310344-1.9375zm9.6551724 0c-1.161637 0-1.9310345.7719736-1.9310345 1.9375v3.875c0 1.1655283.7693975 1.9375 1.9310345 1.9375 1.1616389 0 1.9310345-.7719717 1.9310345-1.9375v-3.875c0-1.1655264-.7693956-1.9375-1.9310345-1.9375zm9.6551724 0c-1.161637 0-1.9310345.7719736-1.9310345 1.9375v3.875c0 1.1655283.7693975 1.9375 1.9310345 1.9375 1.1616389 0 1.9310345-.7719717 1.9310345-1.9375v-3.875c0-1.1655264-.7693956-1.9375-1.9310345-1.9375zm9.6551724 0c-1.161637 0-1.9310345.7719736-1.9310345 1.9375v3.875c0 1.1655283.7693975 1.9375 1.9310345 1.9375 1.1616389 0 1.9310345-.7719717 1.9310345-1.9375v-3.875c0-1.1655264-.7693956-1.9375-1.9310345-1.9375zm9.6551724 0c-1.1616369 0-1.9310345.7719736-1.9310345 1.9375v3.875c0 1.1655283.7693976 1.9375 1.9310345 1.9375 1.1616389 0 1.9310344-.7719717 1.9310344-1.9375v-3.875c0-1.1655264-.7693955-1.9375-1.9310344-1.9375z" fill="url(#a)" transform="translate(0 19)"/></svg>