<?xml version="1.0" encoding="UTF-8"?>
<svg width="112px" height="112px" viewBox="0 0 112 112" version="1.1" xmlns="http://www.w3.org/2000/svg" xmlns:xlink="http://www.w3.org/1999/xlink">
    <!-- Generator: Sketch 51.2 (57519) - http://www.bohemiancoding.com/sketch -->
    <title>automated-backups</title>
    <desc>Created with Sketch.</desc>
    <defs>
        <linearGradient x1="50%" y1="94.4449341%" x2="50%" y2="0%" id="linearGradient-1">
            <stop stop-color="#C822FF" offset="0%"></stop>
            <stop stop-color="#1A6DFF" offset="100%"></stop>
        </linearGradient>
    </defs>
    <g id="automated-backups" stroke="none" stroke-width="1" fill="none" fill-rule="evenodd">
        <g id="SVG-Layer" transform="translate(0.000000, 14.000000)" fill="url(#linearGradient-1)" fill-rule="nonzero">
            <path d="M85.75,0 C77.8627494,0 70.7936253,3.51137494 65.9793747,9.03437494 C59.8438758,7.74987494 52.9322506,7 45.5,7 C19.9867499,7 0,15.456 0,26.25 L0,78.75 C0,89.544 19.9867499,98 45.5,98 C71.0132506,98 91,89.544 91,78.75 L91,51.9706253 C102.968251,49.5311242 112,38.927 112,26.25 C112,11.7757499 100.224251,0 85.75,0 Z M85.75,3.5 C98.294,3.5 108.5,13.706 108.5,26.25 C108.5,38.794 98.294,49 85.75,49 C76.608,49 68.3891242,43.5653747 64.8068758,35.1531242 C64.4288758,34.2606253 63.399,33.8502506 62.51,34.23 C61.621,34.608 61.2071242,35.6334989 61.5868758,36.5225011 C62.1661242,37.884 62.86,39.172 63.6387494,40.39 C58.2732506,41.3874989 52.2112506,42 45.5,42 C20.377,42 3.5,33.8572506 3.5,26.25 C3.5,18.6427499 20.377,10.5 45.5,10.5 C52.2217494,10.5 58.2925011,11.1177499 63.665,12.1187499 C61.712,15.1602499 60.382,18.6235 59.8237494,22.3475 L55.4881242,18.0162501 C54.8038758,17.332 53.7005011,17.332 53.0162506,18.0162501 C52.332,18.7005 52.332,19.8038749 53.0162506,20.4881251 L60.0118758,27.4881242 C60.1728758,27.6508758 60.3697494,27.7794989 60.585,27.8687494 C60.7967494,27.9562506 61.0225011,28 61.25,28 C61.4775011,28 61.7058758,27.9536253 61.9193747,27.8643747 C62.1346253,27.7751242 62.3271242,27.6464989 62.4881242,27.4837494 L69.4881242,20.4881251 C70.1723747,19.8038749 70.1723747,18.6961251 69.4881242,18.0118749 C68.8038758,17.3276251 67.6961242,17.3276251 67.0118758,18.0118749 L63.4987494,21.525 C65.681,11.242 74.8264989,3.5 85.75,3.5 Z M85.75,12.25 C84.7822506,12.25 84,13.0322499 84,14 L84,26.25 C84,27.2177494 84.7822506,28 85.75,28 L98,28 C98.9677494,28 99.75,27.2177494 99.75,26.25 C99.75,25.2822506 98.9677494,24.5 98,24.5 L87.5,24.5 L87.5,14 C87.5,13.0322501 86.7177494,12.25 85.75,12.25 Z M45.5,14 C43.89,14 42.3106253,14.035 40.7618758,14.105 C39.7958758,14.147 39.0468758,14.9677501 39.0906253,15.9337499 C39.1326253,16.8717499 39.907,17.605 40.8362506,17.605 C40.8642506,17.605 40.8913747,17.6023749 40.9193747,17.6006251 C42.4156253,17.5341251 43.9442506,17.5 45.5,17.5 C46.4677494,17.5 47.25,16.7177501 47.25,15.75 C47.25,14.7822499 46.4677494,14 45.5,14 Z M34.7287494,14.5512501 C30.989,14.9467501 27.5117494,15.5435 24.395,16.3275 C23.457,16.562 22.8917494,17.5175 23.1262506,18.4537499 C23.324,19.2482501 24.0353747,19.775 24.8193747,19.775 C24.9611242,19.775 25.1063747,19.7575 25.2481242,19.7225 C28.2073747,18.9805 31.5192506,18.4135 35.0962506,18.0337499 C36.057,17.9322501 36.7552506,17.0712499 36.6537494,16.1087499 C36.554,15.148 35.7017494,14.4515 34.7287494,14.5512501 Z M3.5,33.7881242 C10.304,40.7338758 26.3427494,45.5 45.5,45.5 C52.9165011,45.5 59.8176253,44.7492506 65.9443747,43.47 C69.7943747,47.8992506 75.0382506,50.9285011 80.8674989,52.0274989 C73.7292506,56.2922506 61.2552506,59.5 45.5,59.5 C20.377,59.5 3.5,51.3572506 3.5,43.75 L3.5,33.7881242 Z M3.5,51.2881242 C10.304,58.2338758 26.3427494,63 45.5,63 C63.532,63 78.7701242,58.7658758 86.1743747,52.4781242 C86.6206253,52.4711242 87.0607494,52.4405011 87.5,52.4125011 L87.5,61.25 C87.5,64.2792506 84.8163747,67.41 79.9443747,70.0612506 C79.0973747,70.5232506 78.785,71.5881242 79.2487494,72.4368758 C79.5655011,73.0196253 80.1631242,73.3468758 80.7843747,73.3468758 C81.0661242,73.3468758 81.3522506,73.2777494 81.62,73.1325011 C84.0455011,71.8112506 86.0002506,70.371 87.5,68.8362506 L87.5,78.75 C87.5,86.3572506 70.623,94.5 45.5,94.5 C20.377,94.5 3.5,86.3572506 3.5,78.75 L3.5,68.7531242 C9.12274989,74.5351242 21.1347499,78.8733747 36.4962506,80.1368758 C36.5452506,80.1403747 36.5977494,80.1412506 36.645,80.1412506 C37.548,80.1412506 38.311,79.4491242 38.3862506,78.5356253 C38.465,77.5713747 37.7492506,76.7261242 36.785,76.6456253 C17.8097499,75.0863747 3.5,68.467 3.5,61.25 L3.5,51.2881242 Z M71.75,70 C70.7822506,70 70,70.7822506 70,71.75 L70,75.25 C70,76.2177494 70.7822506,77 71.75,77 C72.7177494,77 73.5,76.2177494 73.5,75.25 L73.5,71.75 C73.5,70.7822506 72.7177494,70 71.75,70 Z M63,71.925 C62.0322506,71.925 61.25,72.7072506 61.25,73.675 L61.25,77.175 C61.25,78.1427494 62.0322506,78.925 63,78.925 C63.9677494,78.925 64.75,78.1427494 64.75,77.175 L64.75,73.675 C64.75,72.7072506 63.9677494,71.925 63,71.925 Z M54.25,73.15 C53.2822506,73.15 52.5,73.9322506 52.5,74.9 L52.5,78.4 C52.5,79.3677494 53.2822506,80.15 54.25,80.15 C55.2177494,80.15 56,79.3677494 56,78.4 L56,74.9 C56,73.9322506 55.2177494,73.15 54.25,73.15 Z M45.5,73.5 C44.5322506,73.5 43.75,74.2822506 43.75,75.25 L43.75,78.75 C43.75,79.7177494 44.5322506,80.5 45.5,80.5 C46.4677494,80.5 47.25,79.7177494 47.25,78.75 L47.25,75.25 C47.25,74.2822506 46.4677494,73.5 45.5,73.5 Z" id="Shape"></path>
        </g>
    </g>
</svg>