<svg height="112" viewBox="0 0 112 112" width="112" xmlns="http://www.w3.org/2000/svg" xmlns:xlink="http://www.w3.org/1999/xlink"><linearGradient id="a" x1="50%" x2="50%" y1="94.444934%" y2="0%"><stop offset="0" stop-color="#c822ff"/><stop offset="1" stop-color="#1a6dff"/></linearGradient><path d="m20.5333333 0c-3.0770824 0-5.6 2.52792339-5.6 5.61111111v13.09259259h-9.3333333c-3.0770824 0-5.6 2.5279234-5.6 5.6111111v71.0740741c0 3.0831896 2.5229176 5.6111111 5.6 5.6111111h85.8666667c3.0770842 0 5.6-2.5279215 5.6-5.6111111v-13.0925926h9.3333333c3.077084 0 5.6-2.5279215 5.6-5.6111111v-71.07407409c0-3.08318772-2.522916-5.61111111-5.6-5.61111111zm0 3.74074074h85.8666667c1.028125 0 1.866667.84020591 1.866667 1.87037037v13.09259259h-7.466667c-1.0354157 0-1.8666667.8329002-1.8666667 1.8703704 0 1.037472.831251 1.8703703 1.8666667 1.8703703h7.466667v54.2407408c0 1.0301644-.838542 1.8703704-1.866667 1.8703704h-9.3333333v-54.2407408c0-3.0831877-2.5229158-5.6111111-5.6-5.6111111h-72.8v-13.09259259c0-1.03016446.8385421-1.87037037 1.8666666-1.87037037zm5.6 3.74074074c-1.0354157 0-1.8666666.83290024-1.8666666 1.87037037v3.74074075c0 1.037472.8312509 1.8703704 1.8666666 1.8703704 1.0354176 0 1.8666667-.8328984 1.8666667-1.8703704v-3.74074075c0-1.03747013-.8312491-1.87037037-1.8666667-1.87037037zm9.3333334 0c-1.0354158 0-1.8666667.83290024-1.8666667 1.87037037v3.74074075c0 1.037472.8312509 1.8703704 1.8666667 1.8703704 1.0354176 0 1.8666666-.8328984 1.8666666-1.8703704v-3.74074075c0-1.03747013-.831249-1.87037037-1.8666666-1.87037037zm9.3333333 0c-1.0354157 0-1.8666667.83290024-1.8666667 1.87037037v3.74074075c0 1.037472.831251 1.8703704 1.8666667 1.8703704 1.0354176 0 1.8666667-.8328984 1.8666667-1.8703704v-3.74074075c0-1.03747013-.8312491-1.87037037-1.8666667-1.87037037zm9.3333333 0c-1.0354157 0-1.8666666.83290024-1.8666666 1.87037037v3.74074075c0 1.037472.8312509 1.8703704 1.8666666 1.8703704 1.0354176 0 1.8666667-.8328984 1.8666667-1.8703704v-3.74074075c0-1.03747013-.8312491-1.87037037-1.8666667-1.87037037zm9.3333334 0c-1.0354158 0-1.8666667.83290024-1.8666667 1.87037037v3.74074075c0 1.037472.8312509 1.8703704 1.8666667 1.8703704 1.0354176 0 1.8666666-.8328984 1.8666666-1.8703704v-3.74074075c0-1.03747013-.831249-1.87037037-1.8666666-1.87037037zm9.3333333 0c-1.0354157 0-1.8666667.83290024-1.8666667 1.87037037v3.74074075c0 1.037472.831251 1.8703704 1.8666667 1.8703704 1.0354176 0 1.8666667-.8328984 1.8666667-1.8703704v-3.74074075c0-1.03747013-.8312491-1.87037037-1.8666667-1.87037037zm9.3333333 0c-1.0354157 0-1.8666666.83290024-1.8666666 1.87037037v3.74074075c0 1.037472.8312509 1.8703704 1.8666666 1.8703704 1.0354176 0 1.8666667-.8328984 1.8666667-1.8703704v-3.74074075c0-1.03747013-.8312491-1.87037037-1.8666667-1.87037037zm9.3333334 0c-1.0354158 0-1.8666667.83290024-1.8666667 1.87037037v3.74074075c0 1.037472.8312509 1.8703704 1.8666667 1.8703704 1.0354176 0 1.8666666-.8328984 1.8666666-1.8703704v-3.74074075c0-1.03747013-.831249-1.87037037-1.8666666-1.87037037zm9.3333333 0c-1.0354157 0-1.8666667.83290024-1.8666667 1.87037037v3.74074075c0 1.037472.831251 1.8703704 1.8666667 1.8703704 1.035418 0 1.866667-.8328984 1.866667-1.8703704v-3.74074075c0-1.03747013-.831249-1.87037037-1.866667-1.87037037zm-95.2 14.96296292h85.8666667c1.0281245 0 1.8666666.840206 1.8666666 1.8703704v13.0925926h-89.59999997v-13.0925926c0-1.0301644.83854214-1.8703704 1.86666667-1.8703704zm5.6 3.7407408c-1.0354157 0-1.86666667.8329002-1.86666667 1.8703704v3.7407407c0 1.037472.83125097 1.8703704 1.86666667 1.8703704 1.0354176 0 1.8666667-.8328984 1.8666667-1.8703704v-3.7407407c0-1.0374702-.8312491-1.8703704-1.8666667-1.8703704zm9.3333333 0c-1.0354157 0-1.8666666.8329002-1.8666666 1.8703704v3.7407407c0 1.037472.8312509 1.8703704 1.8666666 1.8703704 1.0354176 0 1.8666667-.8328984 1.8666667-1.8703704v-3.7407407c0-1.0374702-.8312491-1.8703704-1.8666667-1.8703704zm9.3333334 0c-1.0354158 0-1.8666667.8329002-1.8666667 1.8703704v3.7407407c0 1.037472.8312509 1.8703704 1.8666667 1.8703704 1.0354176 0 1.8666666-.8328984 1.8666666-1.8703704v-3.7407407c0-1.0374702-.831249-1.8703704-1.8666666-1.8703704zm9.3333333 0c-1.0354157 0-1.8666667.8329002-1.8666667 1.8703704v3.7407407c0 1.037472.831251 1.8703704 1.8666667 1.8703704 1.0354176 0 1.8666667-.8328984 1.8666667-1.8703704v-3.7407407c0-1.0374702-.8312491-1.8703704-1.8666667-1.8703704zm9.3333333 0c-1.0354157 0-1.8666666.8329002-1.8666666 1.8703704v3.7407407c0 1.037472.8312509 1.8703704 1.8666666 1.8703704 1.0354176 0 1.8666667-.8328984 1.8666667-1.8703704v-3.7407407c0-1.0374702-.8312491-1.8703704-1.8666667-1.8703704zm9.3333334 0c-1.0354158 0-1.8666667.8329002-1.8666667 1.8703704v3.7407407c0 1.037472.8312509 1.8703704 1.8666667 1.8703704 1.0354176 0 1.8666666-.8328984 1.8666666-1.8703704v-3.7407407c0-1.0374702-.831249-1.8703704-1.8666666-1.8703704zm9.3333333 0c-1.0354157 0-1.8666667.8329002-1.8666667 1.8703704v3.7407407c0 1.037472.831251 1.8703704 1.8666667 1.8703704 1.0354176 0 1.8666667-.8328984 1.8666667-1.8703704v-3.7407407c0-1.0374702-.8312491-1.8703704-1.8666667-1.8703704zm9.3333333 0c-1.0354157 0-1.8666666.8329002-1.8666666 1.8703704v3.7407407c0 1.037472.8312509 1.8703704 1.8666666 1.8703704 1.0354176 0 1.8666667-.8328984 1.8666667-1.8703704v-3.7407407c0-1.0374702-.8312491-1.8703704-1.8666667-1.8703704zm9.3333334 0c-1.0354158 0-1.8666667.8329002-1.8666667 1.8703704v3.7407407c0 1.037472.8312509 1.8703704 1.8666667 1.8703704 1.0354176 0 1.8666666-.8328984 1.8666666-1.8703704v-3.7407407c0-1.0374702-.831249-1.8703704-1.8666666-1.8703704zm-82.13333337 14.9629629h89.59999997v54.2407408c0 1.0301645-.8385421 1.8703704-1.8666666 1.8703704h-85.8666667c-1.02812453 0-1.86666667-.8402059-1.86666667-1.8703704zm9.33333337 11.2222223c-1.0354158 0-1.8666667.8329002-1.8666667 1.8703703v26.1851852c0 1.037472.8312509 1.8703704 1.8666667 1.8703704h29.8666666c1.0354176 0 1.8666667-.8328984 1.8666667-1.8703704v-26.1851852c0-1.0374701-.8312491-1.8703703-1.8666667-1.8703703zm41.0666666 0c-1.0354157 0-1.8666666.8329002-1.8666666 1.8703703 0 1.037472.8312509 1.8703704 1.8666666 1.8703704h14.9333334c1.0354176 0 1.8666666-.8328984 1.8666666-1.8703704 0-1.0374701-.831249-1.8703703-1.8666666-1.8703703zm22.4 0c-1.0354157 0-1.8666666.8329002-1.8666666 1.8703703 0 1.037472.8312509 1.8703704 1.8666666 1.8703704h7.4666667c1.0354176 0 1.8666667-.8328984 1.8666667-1.8703704 0-1.0374701-.8312491-1.8703703-1.8666667-1.8703703zm-61.6 3.7407407h26.1333334v22.4444445h-26.1333334zm39.2 3.7407408c-1.0354157 0-1.8666666.8329002-1.8666666 1.8703703 0 1.037472.8312509 1.8703704 1.8666666 1.8703704h29.8666667c1.0354176 0 1.8666667-.8328984 1.8666667-1.8703704 0-1.0374701-.8312491-1.8703703-1.8666667-1.8703703zm0 11.2222222c-1.0354157 0-1.8666666.8329002-1.8666666 1.8703703 0 1.037472.8312509 1.8703704 1.8666666 1.8703704h24.2666667c1.0354176 0 1.8666667-.8328984 1.8666667-1.8703704 0-1.0374701-.8312491-1.8703703-1.8666667-1.8703703zm0 7.4814815c-1.0354157 0-1.8666666.8329002-1.8666666 1.8703703 0 1.037472.8312509 1.8703704 1.8666666 1.8703704h16.8c1.0354176 0 1.8666667-.8328984 1.8666667-1.8703704 0-1.0374701-.8312491-1.8703703-1.8666667-1.8703703z" fill="url(#a)" transform="translate(0 11)"/></svg>