<?xml version="1.0" encoding="UTF-8"?>
<svg width="112px" height="112px" viewBox="0 0 112 112" version="1.1" xmlns="http://www.w3.org/2000/svg" xmlns:xlink="http://www.w3.org/1999/xlink">
    <!-- Generator: Sketch 51.2 (57519) - http://www.bohemiancoding.com/sketch -->
    <title>dedicated-ip-resources</title>
    <desc>Created with Sketch.</desc>
    <defs>
        <linearGradient x1="50%" y1="94.4449341%" x2="50%" y2="0%" id="linearGradient-1">
            <stop stop-color="#C822FF" offset="0%"></stop>
            <stop stop-color="#1A6DFF" offset="100%"></stop>
        </linearGradient>
    </defs>
    <g id="dedicated-ip-resources" stroke="none" stroke-width="1" fill="none" fill-rule="evenodd">
        <g id="SVG-Layer" transform="translate(2.000000, 0.000000)" fill="url(#linearGradient-1)" fill-rule="nonzero">
            <g id="surface1">
                <path d="M48.4566532,0 C46.0255805,0 43.9241431,1.6337895 43.3404112,3.9785165 L40.2981351,16.0371103 C38.7460946,16.563477 37.1803184,17.219727 35.655746,17.985352 L24.9219376,11.5664062 C22.8411047,10.329102 20.1971392,10.6503915 18.4802802,12.359375 L12.4163306,18.3955082 C10.6994716,20.0976562 10.3767015,22.736329 11.6197077,24.8076168 L18.054498,35.4921875 C17.2922136,37.0234375 16.6398064,38.5751957 16.124748,40.1201168 L3.99685068,43.141602 C1.64131848,43.7226562 0,45.8212895 0,48.234375 L0,56.765625 C0,59.1855477 1.64131848,61.2773438 3.99685068,61.858398 L16.111014,64.8867188 C16.6398064,66.4248042 17.2922136,67.9765625 18.0682338,69.5078125 L11.6197077,80.1923833 C10.3767015,82.2636727 10.6994716,84.8955083 12.4163306,86.6044917 L18.4802802,92.640625 C20.1971392,94.3496102 22.8411047,94.670898 24.9219376,93.4335938 L35.655746,87.0283208 C37.1803184,87.780273 38.7392259,88.4296875 40.3050021,88.9492188 L43.3404112,101.021485 C43.9241431,103.36621 46.0324475,105 48.4566532,105 L52.7419355,105 L52.7419355,106.75 C52.7419355,109.641602 55.1112017,112 58.016129,112 L103.725806,112 C106.630734,112 109,109.641602 109,106.75 L109,64.75 C109,62.1660165 107.111454,60.0263668 104.639175,59.5888668 C105.16797,58.7685543 105.483871,57.8046875 105.483871,56.765625 L105.483871,48.234375 C105.483871,45.814454 103.842552,43.7226562 101.493889,43.141602 L89.3728587,40.1132812 C88.8371976,38.561523 88.1847904,37.0097665 87.4156372,35.4921875 L93.8641633,24.8076168 C95.1071694,22.736329 94.7775323,20.1044918 93.0675403,18.3955082 L87.0035908,12.359375 C85.2867318,10.6503915 82.642768,10.329102 80.5619334,11.5664062 L69.828125,17.9716793 C68.2966855,17.2128915 66.7309093,16.563477 65.1788689,16.0439457 L62.1434597,3.9785165 C61.5597278,1.6337895 59.4514235,0 57.0272177,0 L48.4566532,0 Z M48.4566532,3.5 L57.0272177,3.5 C57.8375765,3.5 58.5380544,4.046875 58.7372097,4.82617275 L61.7726189,16.8984375 C62.0610505,18.046875 62.912613,18.9628915 64.0526088,19.3525395 C65.4535665,19.8242188 66.8682581,20.4189457 68.2623488,21.109375 C69.3474051,21.642579 70.6041452,21.594727 71.641129,20.9794918 L82.3749374,14.5673832 C83.0685484,14.1503915 83.9475806,14.266602 84.5175786,14.8339853 L90.5815281,20.8632812 C91.1515243,21.4375 91.2614033,22.3125 90.8424899,23.0029293 L84.4076995,33.6875 C83.7896291,34.7128915 83.7415583,35.970704 84.2772177,37.0507812 C84.9708287,38.4316415 85.5614294,39.8398438 86.0421493,41.2412105 C86.4404616,42.375977 87.3606976,43.2304688 88.5075605,43.5107418 L100.63546,46.532227 C101.418347,46.7304688 101.967742,47.4277352 101.967742,48.234375 L101.967742,56.765625 C101.967742,57.5722665 101.418347,58.2695313 100.63546,58.4609375 L96.7278851,59.438477 C96.6798144,59.452148 96.6454759,59.486329 96.5974051,59.5 L76.3315907,59.5 C77.0045989,57.2441415 77.3548387,54.892579 77.3548387,52.5 C77.3548387,41.186523 69.6564395,31.4042977 58.6410665,28.7109375 C57.6864919,28.485352 56.7456532,29.0527352 56.5121593,29.9892582 C56.2786673,30.9257812 56.8555322,31.875977 57.796371,32.1015625 C67.2391007,34.4189457 73.8387097,42.8066415 73.8387097,52.5 C73.8387097,54.9130855 73.4129293,57.2578125 72.6094376,59.5 L58.016129,59.5 C55.1112017,59.5 52.7419355,61.858398 52.7419355,64.75 L52.7419355,101.5 L48.4566532,101.5 C47.6462962,101.5 46.9458165,100.953125 46.7535282,100.173829 L43.7181208,88.108398 C43.4296875,86.9599605 42.578125,86.0371102 41.4312622,85.6474605 C40.0234375,85.1689458 38.6087458,84.5810543 37.2215222,83.890625 C36.1295989,83.3505855 34.8728587,83.405273 33.8496089,84.0205083 L23.1089335,90.4257812 C22.4221896,90.842773 21.5362903,90.733398 20.9662924,90.1660165 L14.9023446,84.1298833 C14.3323467,83.5625 14.2224677,82.6806645 14.641381,81.9970707 L21.0761714,71.3056645 C21.6942419,70.280273 21.7423144,69.0292977 21.2066532,67.9492188 C20.5130423,66.5546875 19.9224416,65.1464852 19.4417217,63.7587895 C19.0502781,62.6171875 18.1231733,61.7695312 16.9763105,61.4824227 L4.84841318,58.4609375 C4.06552419,58.2695313 3.51612903,57.5722665 3.51612903,56.765625 L3.51612903,48.234375 C3.51612903,47.4277352 4.06552419,46.7304688 4.84841318,46.5390625 L16.9694435,43.517579 C18.1231733,43.2304688 19.0502781,42.3828125 19.4417217,41.2412105 C19.9155746,39.8535165 20.5130423,38.4453125 21.2066532,37.0507812 C21.7423144,35.970704 21.6942419,34.719727 21.0761714,33.6943355 L14.641381,23.0029293 C14.2224677,22.3193355 14.3323467,21.4375 14.9023446,20.8701168 L20.9594254,14.8339853 C21.5362903,14.266602 22.4153226,14.157227 23.1089335,14.5742188 L33.8427419,20.9794918 C34.8728587,21.594727 36.1364676,21.6357418 37.2215222,21.109375 C38.6087458,20.4189457 40.0234375,19.8310543 41.4312622,19.3525395 C42.578125,18.9628915 43.4296875,18.0400395 43.7112521,16.8984375 L46.7535282,4.82617275 C46.9458165,4.046875 47.6462962,3.5 48.4566532,3.5 Z M49.4455645,28.21875 C47.9690646,28.4101562 46.5063004,28.7451167 45.0984757,29.203125 C44.178238,29.5039062 43.6700483,30.4951167 43.9722157,31.4111332 C44.2125765,32.1494145 44.9061874,32.6210937 45.6478709,32.6210937 C45.8264235,32.6210937 46.0049778,32.59375 46.1903991,32.532227 C47.3990684,32.142579 48.6489415,31.8554687 49.9125504,31.6914062 C50.8739919,31.561523 51.5470019,30.6796875 51.4233871,29.7226562 C51.2929053,28.7587895 50.400139,28.0888667 49.4455645,28.21875 Z M36.5828507,34.6650395 C36.1364676,34.6650395 35.6832157,34.8359375 35.3398446,35.1777352 C34.6531007,35.861329 34.6531007,36.96875 35.3398446,37.6523438 L37.8258569,40.126954 C38.1692297,40.46875 38.6156128,40.639648 39.068863,40.639648 C39.5221149,40.639648 39.968498,40.46875 40.3118708,40.126954 C40.9986148,39.4433602 40.9986148,38.3359375 40.3118708,37.6523438 L37.8258569,35.1777352 C37.4824858,34.8359375 37.0292339,34.6650395 36.5828507,34.6650395 Z M52.7419355,38.5 C44.9885967,38.5 38.6774194,44.782227 38.6774194,52.5 C38.6774194,57.8320312 41.6510202,62.6308602 46.4444939,65.0234375 C46.6985887,65.1464852 46.9664193,65.2080083 47.2273811,65.2080083 C47.8729213,65.2080083 48.4978587,64.8525395 48.8068931,64.2373042 C49.2395422,63.375977 48.8893024,62.3232418 48.0171371,61.892579 C44.4254658,60.1015625 42.1935484,56.499023 42.1935484,52.5 C42.1935484,46.7099605 46.9252138,42 52.7419355,42 C58.5586572,42 63.2903226,46.7099605 63.2903226,52.5 C63.2903226,52.8417977 63.2765886,53.1904293 63.2422501,53.5253915 C63.1461068,54.4892582 63.8534535,55.3369145 64.821762,55.4326168 C65.7969376,55.5078125 66.6485001,54.8173832 66.7446451,53.860352 C66.7858489,53.4091793 66.8064516,52.9580082 66.8064516,52.5 C66.8064516,44.782227 60.4952743,38.5 52.7419355,38.5 Z M31.7069678,41.8632812 C31.0270926,41.8564457 30.3678184,42.2597665 30.0793851,42.9296875 C29.7016755,43.8183602 30.1205906,44.84375 31.0133569,45.2265625 L34.2547883,46.59375 C34.4814134,46.6826168 34.7080402,46.7304688 34.9415323,46.7304688 C35.6282762,46.7304688 36.2806834,46.327148 36.562248,45.6640625 C36.9399576,44.7753915 36.5210442,43.7431645 35.6282762,43.3671875 L32.3868448,42 C32.1670867,41.9042977 31.9404616,41.8632812 31.7069678,41.8632812 Z M52.7419355,49 C50.7984497,49 49.2258065,50.5654293 49.2258065,52.5 C49.2258065,54.4345707 50.7984497,56 52.7419355,56 C54.6854213,56 56.2580645,54.4345707 56.2580645,52.5 C56.2580645,50.5654293 54.6854213,49 52.7419355,49 Z M29.8870968,50.75 C28.9119212,50.75 28.1290323,51.5361332 28.1290323,52.5 C28.1290323,53.4638668 28.9119212,54.25 29.8870968,54.25 L33.4032258,54.25 C34.3784031,54.25 35.1612903,53.4638668 35.1612903,52.5 C35.1612903,51.5361332 34.3784031,50.75 33.4032258,50.75 L29.8870968,50.75 Z M34.8385202,57.9619145 C34.6118952,57.955079 34.3784031,57.9960938 34.1517763,58.0849605 L30.8966108,59.3974605 C29.9901088,59.7597665 29.5574597,60.7783207 29.9214335,61.6806645 C30.1961311,62.3574227 30.8554053,62.7744145 31.555885,62.7744145 C31.7756431,62.7744145 31.9954011,62.733398 32.2151592,62.6445312 L35.4703247,61.3320312 C36.3699597,60.9765625 36.8026088,59.9511727 36.445502,59.0556645 C36.1708044,58.3857418 35.5252642,57.9755855 34.8385202,57.9619145 Z M58.016129,63 L73.8387097,63 C73.8387097,63 73.8387097,63 73.8455767,63 C73.8524454,63 73.8524454,63 73.8593124,63 L103.725806,63 C104.694115,63 105.483871,63.7861332 105.483871,64.75 L105.483871,66.5 L56.2580645,66.5 L56.2580645,64.75 C56.2580645,63.7861332 57.0478205,63 58.016129,63 Z M39.061996,64.360352 C38.6156128,64.360352 38.1692297,64.53125 37.8258569,64.8730477 L35.3398446,67.3476562 C34.6531007,68.03125 34.6531007,69.1386727 35.3398446,69.8222665 C35.6832157,70.1640625 36.1295989,70.3349605 36.5828507,70.3349605 C37.0361009,70.3349605 37.4824858,70.1640625 37.8258569,69.8222665 L40.3118708,67.3476562 C40.9986148,66.6640625 40.9986148,65.5566415 40.3118708,64.8730477 C39.968498,64.53125 39.5152479,64.360352 39.061996,64.360352 Z M45.187752,68.46875 C44.5078751,68.46875 43.8486009,68.8652352 43.5670363,69.5351562 L42.1935484,72.7617188 C41.8089718,73.6503915 42.2278851,74.6757812 43.1275202,75.0585938 C43.3472782,75.1474605 43.580772,75.1953125 43.8142641,75.1953125 C44.4941411,75.1953125 45.1465483,74.7919917 45.4281128,74.1289062 L46.8016007,70.9023438 C47.1861774,70.0136727 46.767264,68.9882812 45.874496,68.6054688 C45.6547379,68.516602 45.4212458,68.46875 45.187752,68.46875 Z M56.2580645,70 L105.483871,70 L105.483871,106.75 C105.483871,107.713867 104.694115,108.5 103.725806,108.5 L58.016129,108.5 C57.0478205,108.5 56.2580645,107.713867 56.2580645,106.75 L56.2580645,70 Z M75.5967742,77 C75.1503911,77 74.6971392,77.170898 74.3537681,77.5126958 L68.5645161,83.2753915 L66.2913932,81.0126958 C65.6046493,80.329102 64.4921249,80.329102 63.805381,81.0126958 C63.118637,81.6962895 63.118637,82.8037105 63.805381,83.4873042 L67.32151,86.9873042 C67.6648811,87.329102 68.111266,87.5 68.5645161,87.5 C69.017768,87.5 69.4641511,87.329102 69.8075222,86.9873042 L76.8397803,79.9873042 C77.5265243,79.3037105 77.5265243,78.1962895 76.8397803,77.5126958 C76.4964092,77.170898 76.0431573,77 75.5967742,77 Z M82.6290323,80.5 C81.6538567,80.5 80.8709677,81.2861333 80.8709677,82.25 C80.8709677,83.2138667 81.6538567,84 82.6290323,84 L96.6935484,84 C97.6687257,84 98.4516129,83.2138667 98.4516129,82.25 C98.4516129,81.2861333 97.6687257,80.5 96.6935484,80.5 L82.6290323,80.5 Z M75.5967742,91 C75.1503911,91 74.6971392,91.170898 74.3537681,91.5126958 L68.5645161,97.2753915 L66.2913932,95.0126958 C65.6046493,94.329102 64.4921249,94.329102 63.805381,95.0126958 C63.118637,95.6962895 63.118637,96.8037105 63.805381,97.4873042 L67.32151,100.987304 C67.6648811,101.329102 68.111266,101.5 68.5645161,101.5 C69.017768,101.5 69.4641511,101.329102 69.8075222,100.987304 L76.8397803,93.9873042 C77.5265243,93.3037105 77.5265243,92.1962895 76.8397803,91.5126958 C76.4964092,91.170898 76.0431573,91 75.5967742,91 Z M82.6290323,94.5 C81.6538567,94.5 80.8709677,95.2861333 80.8709677,96.25 C80.8709677,97.2138667 81.6538567,98 82.6290323,98 L89.6612903,98 C90.6364676,98 91.4193548,97.2138667 91.4193548,96.25 C91.4193548,95.2861333 90.6364676,94.5 89.6612903,94.5 L82.6290323,94.5 Z" id="Shape"></path>
            </g>
        </g>
    </g>
</svg>