<svg height="112" viewBox="0 0 112 112" width="112" xmlns="http://www.w3.org/2000/svg" xmlns:xlink="http://www.w3.org/1999/xlink"><linearGradient id="a" x1="50%" x2="50%" y1="94.444934%" y2="0%"><stop offset="0" stop-color="#c822ff"/><stop offset="1" stop-color="#1a6dff"/></linearGradient><path d="m5.60869565 0c-3.08478261 0-5.60869565 2.52-5.60869565 5.6v93.3333333c0 3.0799997 2.52391304 5.5999997 5.60869565 5.5999997h35.52173915v5.6c0 .653334.337836 1.249937.8800099 1.585937.5608696.336 1.2498343.37523 1.8293995.076563l6.7881277-3.379687 10.4688361 3.489063c.2056503.056.393192.094791.5988442.094791.3926087 0 .7666675-.110979 1.0844936-.353646.5047826-.354666.7850716-.915687.7850716-1.513021v-5.6h16.8260869c3.0847827 0 5.6086957-2.52 5.6086957-5.5999997v-93.3333333c0-3.08-2.523913-5.6-5.6086957-5.6zm0 3.73333333h74.78260865c1.0282609 0 1.8695653.84 1.8695653 1.86666667v70.9333333c-1.032 0-1.8695653.8362667-1.8695653 1.8666667v3.7333333c0 1.0304.8375653 1.8666667 1.8695653 1.8666667v14.9333333c0 1.0266667-.8413044 1.8666667-1.8695653 1.8666667h-16.8260869v-12.4687509l4.3197183-1.4364579c.5795652-.1866667 1.0070824-.6358333 1.194039-1.1958333.1869565-.56.095961-1.1958334-.2592564-1.6625l-2.6948025-3.7697912 2.6948025-3.7697912c.3552174-.4666667.4462129-1.1025.2592564-1.6625-.1869566-.56-.6144738-1.0091667-1.194039-1.1958334l-4.3927473-1.4546877-.0401676-4.6302088c0-.5973333-.2807264-1.1551456-.7668134-1.4911456-.4860869-.3546667-1.081865-.4487299-1.6614302-.2807299l-4.4146567 1.4-2.7459239-3.7151034c-.7104348-.9706667-2.3203062-.9706667-3.030741 0l-2.7459239 3.7151034-4.4146567-1.4c-.5608696-.168-1.194039-.0739368-1.6614303.2807299-.4860869.336-.7668134.8938123-.7668134 1.4911456l-.0401676 4.6302088-4.3927472 1.4546877c-.5795652.1866667-1.0070825.6358334-1.194039 1.1958334s-.095961 1.1958333.2592564 1.6625l2.6948025 3.7697912-2.6948025 3.7697912c-.3552174.4666666-.4462129 1.1025-.2592564 1.6625s.6144738 1.0091666 1.194039 1.1958333l4.3197183 1.4364579v12.4687509h-35.52173915c-1.02826087 0-1.86956522-.84-1.86956522-1.8666667v-14.9333333c1.032 0 1.86956522-.8362667 1.86956522-1.8666667v-3.7333333c0-1.0304-.83756522-1.8666667-1.86956522-1.8666667v-70.9333333c0-1.02666667.84130435-1.86666667 1.86956522-1.86666667zm14.95652175 18.66666667c-1.032 0-1.8695652.8362667-1.8695652 1.8666667s.8375652 1.8666666 1.8695652 1.8666666h29.9130435c1.032 0 1.8695652-.8362666 1.8695652-1.8666666s-.8375652-1.8666667-1.8695652-1.8666667zm37.3913043 0c-1.032 0-1.8695652.8362667-1.8695652 1.8666667s.8375652 1.8666666 1.8695652 1.8666666h7.4782609c1.032 0 1.8695652-.8362666 1.8695652-1.8666666s-.8375652-1.8666667-1.8695652-1.8666667zm-37.3913043 7.4666667c-1.032 0-1.8695652.8362666-1.8695652 1.8666666s.8375652 1.8666667 1.8695652 1.8666667h37.3913043c1.032 0 1.8695653-.8362667 1.8695653-1.8666667s-.8375653-1.8666666-1.8695653-1.8666666zm0 11.2c-1.032 0-1.8695652.8362666-1.8695652 1.8666666s.8375652 1.8666667 1.8695652 1.8666667h41.1304348c1.032 0 1.8695652-.8362667 1.8695652-1.8666667s-.8375652-1.8666666-1.8695652-1.8666666zm0 7.4666666c-1.032 0-1.8695652.8362667-1.8695652 1.8666667s.8375652 1.8666667 1.8695652 1.8666667h22.4347826c1.032 0 1.8695652-.8362667 1.8695652-1.8666667s-.8375652-1.8666667-1.8695652-1.8666667zm31.7826087 19.1880211 2.0375344 2.7635421c.486087.6346667 1.3075272.9135 2.0740489.6708334l3.2717392-1.0427088.0219094 3.4343754c.0186938.8026667.5224556 1.510979 1.2889773 1.7536456l3.2717392 1.0828123-2.0192782 2.8c-.4673913.6533333-.4673913 1.5122912 0 2.1656245l2.0192782 2.8-.7485571.244272-2.5231821.8385403c-.5982608.1866667-1.0476875.6714176-1.2159483 1.2687509-.0373913.1493334-.073029.3168947-.073029.4848947l-.0219094 3.4343755-3.2717392-1.0427088c-.7665217-.2426667-1.6066576.0361666-2.0740489.6708333l-2.0375344 2.7635421-2.0375344-2.7635421c-.3552174-.4853333-.9171097-.7473947-1.5153705-.7473947-.1869565 0-.3717219.0205614-.5586785.0765614l-3.2717391 1.0427088-.0219094-3.4343755c0-.168-.0356377-.3355613-.073029-.4848947-.1682609-.5973333-.6176875-1.0820842-1.2159484-1.2687509l-2.523182-.8385403-.7485571-.244272 2.0192781-2.8c.4673913-.6533333.4673913-1.5122912 0-2.1656245l-2.0192781-2.8 3.2717391-1.0828123c.7665218-.2426666 1.2702836-.9509789 1.2889774-1.7536456l.0219094-3.4343754 3.2717391 1.0427088c.7665218.2426666 1.587962-.0361667 2.074049-.6708334zm-39.2608696 8.8119789c-1.032 0-1.8695652.8362667-1.8695652 1.8666667v3.7333333c0 1.0304.8375652 1.8666667 1.8695652 1.8666667s1.8695652-.8362667 1.8695652-1.8666667v-3.7333333c0-1.0304-.8375652-1.8666667-1.8695652-1.8666667zm9.3478261 0c-1.032 0-1.8695652.8362667-1.8695652 1.8666667v3.7333333c0 1.0304.8375652 1.8666667 1.8695652 1.8666667s1.8695652-.8362667 1.8695652-1.8666667v-3.7333333c0-1.0304-.8375652-1.8666667-1.8695652-1.8666667zm9.3478261 0c-1.032 0-1.8695652.8362667-1.8695652 1.8666667v3.7333333c0 1.0304.8375652 1.8666667 1.8695652 1.8666667s1.8695652-.8362667 1.8695652-1.8666667v-3.7333333c0-1.0304-.8375652-1.8666667-1.8695652-1.8666667zm41.1304348 0c-1.032 0-1.8695652.8362667-1.8695652 1.8666667v3.7333333c0 1.0304.8375652 1.8666667 1.8695652 1.8666667s1.8695652-.8362667 1.8695652-1.8666667v-3.7333333c0-1.0304-.8375652-1.8666667-1.8695652-1.8666667zm-24.8265118 16.8182299 2.7459239 3.7151035c.3552174.4853333.9171096.7656245 1.5153705.7656245s1.1601531-.2802912 1.5153705-.7656245l2.7459239-3.7151035 3.2169665 1.0281245v6.4203123 3.733333 3.004167l-8.748982-2.909375c-.2056503-.056-.393192-.094792-.5988441-.094792-.2804348 0-.5781051.0735-.8398442.204167l-4.7688515 2.373437v-2.577604-3.733333-6.4203123z" fill="url(#a)" transform="translate(13)"/></svg>