<?xml version="1.0" encoding="UTF-8"?>
<svg width="112px" height="112px" viewBox="0 0 112 112" version="1.1" xmlns="http://www.w3.org/2000/svg" xmlns:xlink="http://www.w3.org/1999/xlink">
    <!-- Generator: Sketch 51.2 (57519) - http://www.bohemiancoding.com/sketch -->
    <title>fully-managed</title>
    <desc>Created with Sketch.</desc>
    <defs>
        <linearGradient x1="50%" y1="94.4449341%" x2="50%" y2="0%" id="linearGradient-1">
            <stop stop-color="#C822FF" offset="0%"></stop>
            <stop stop-color="#1A6DFF" offset="100%"></stop>
        </linearGradient>
    </defs>
    <g id="fully-managed" stroke="none" stroke-width="1" fill="none" fill-rule="evenodd">
        <g fill="url(#linearGradient-1)" fill-rule="nonzero" id="surface1">
            <g>
                <path d="M19.0733178,0 C15.7836538,0 12.8305283,1.82572062 11.3665871,4.76202031 L1.13581785,25.2151437 C0.395433231,26.704328 0,28.3701923 0,30.0276437 L0,51.6923077 C0,54.2752409 1.16947169,56.5721154 2.97836646,58.1538462 C1.16947169,59.7355769 0,62.0324514 0,64.6153846 L0,77.5384615 C0,80.1213948 1.16947169,82.4182692 2.97836646,84 C1.16947169,85.5817308 0,87.8786052 0,90.4615385 L0,103.384615 C0,108.138221 3.86177938,112 8.61538462,112 L103.384615,112 C108.138221,112 112,108.138221 112,103.384615 L112,90.4615385 C112,87.8786052 110.830528,85.5817308 109.021636,84 C110.830528,82.4182692 112,80.1213948 112,77.5384615 L112,64.6153846 C112,62.0324514 110.830528,59.7355769 109.021636,58.1538462 C110.830528,56.5721154 112,54.2752409 112,51.6923077 L112,30.0276437 C112,28.3701923 111.604567,26.704328 110.864182,25.2151437 L100.633413,4.76202031 C99.1694717,1.82572062 96.2163462,0 92.9266822,0 L19.0733178,0 Z M19.0733178,4.30769231 L92.9266822,4.30769231 C94.5673077,4.30769231 96.0480769,5.22475908 96.7800486,6.68870246 L107.010818,27.141828 C107.456731,28.0336538 107.692308,29.0348563 107.692308,30.0276437 L107.692308,30.1538462 L4.30769231,30.1538462 L4.30769231,30.0276437 C4.30769231,29.0348563 4.54326923,28.0336538 4.98918215,27.141828 L15.2115385,6.68870246 C15.9519231,5.22475908 17.4242794,4.30769231 19.0733178,4.30769231 Z M19.3846154,8.61538462 C18.1899049,8.61538462 17.2307692,9.57452031 17.2307692,10.7692308 C17.2307692,11.9639434 18.1899049,12.9230769 19.3846154,12.9230769 L75.3846154,12.9230769 C76.579328,12.9230769 77.5384615,11.9639434 77.5384615,10.7692308 C77.5384615,9.57452031 76.579328,8.61538462 75.3846154,8.61538462 L19.3846154,8.61538462 Z M84,8.61538462 C82.8052895,8.61538462 81.8461538,9.57452031 81.8461538,10.7692308 C81.8461538,11.9639434 82.8052895,12.9230769 84,12.9230769 L92.6153846,12.9230769 C93.8100972,12.9230769 94.7692308,11.9639434 94.7692308,10.7692308 C94.7692308,9.57452031 93.8100972,8.61538462 92.6153846,8.61538462 L84,8.61538462 Z M4.30769231,34.4615385 L107.692308,34.4615385 L107.692308,51.6923077 C107.692308,54.0649049 105.757213,56 103.384615,56 L8.61538462,56 C6.24278954,56 4.30769231,54.0649049 4.30769231,51.6923077 L4.30769231,34.4615385 Z M92.6153846,38.7692308 C89.0564898,38.7692308 86.1538462,41.6718745 86.1538462,45.2307692 C86.1538462,48.789664 89.0564898,51.6923077 92.6153846,51.6923077 C96.1742794,51.6923077 99.0769231,48.789664 99.0769231,45.2307692 C99.0769231,41.6718745 96.1742794,38.7692308 92.6153846,38.7692308 Z M15.0769231,40.9230769 C13.8822126,40.9230769 12.9230769,41.8822126 12.9230769,43.0769231 L12.9230769,47.3846154 C12.9230769,48.579328 13.8822126,49.5384615 15.0769231,49.5384615 C16.2716357,49.5384615 17.2307692,48.579328 17.2307692,47.3846154 L17.2307692,43.0769231 C17.2307692,41.8822126 16.2716357,40.9230769 15.0769231,40.9230769 Z M25.8461538,40.9230769 C24.6514434,40.9230769 23.6923077,41.8822126 23.6923077,43.0769231 L23.6923077,47.3846154 C23.6923077,48.579328 24.6514434,49.5384615 25.8461538,49.5384615 C27.0408665,49.5384615 28,48.579328 28,47.3846154 L28,43.0769231 C28,41.8822126 27.0408665,40.9230769 25.8461538,40.9230769 Z M36.6153846,40.9230769 C35.4206742,40.9230769 34.4615385,41.8822126 34.4615385,43.0769231 L34.4615385,47.3846154 C34.4615385,48.579328 35.4206742,49.5384615 36.6153846,49.5384615 C37.8100972,49.5384615 38.7692308,48.579328 38.7692308,47.3846154 L38.7692308,43.0769231 C38.7692308,41.8822126 37.8100972,40.9230769 36.6153846,40.9230769 Z M47.3846154,40.9230769 C46.1899049,40.9230769 45.2307692,41.8822126 45.2307692,43.0769231 L45.2307692,47.3846154 C45.2307692,48.579328 46.1899049,49.5384615 47.3846154,49.5384615 C48.579328,49.5384615 49.5384615,48.579328 49.5384615,47.3846154 L49.5384615,43.0769231 C49.5384615,41.8822126 48.579328,40.9230769 47.3846154,40.9230769 Z M58.1538462,40.9230769 C56.9591357,40.9230769 56,41.8822126 56,43.0769231 L56,47.3846154 C56,48.579328 56.9591357,49.5384615 58.1538462,49.5384615 C59.3485588,49.5384615 60.3076923,48.579328 60.3076923,47.3846154 L60.3076923,43.0769231 C60.3076923,41.8822126 59.3485588,40.9230769 58.1538462,40.9230769 Z M92.6153846,42.6310102 C94.0540871,42.6310102 95.2151437,43.8004818 95.2151437,45.2307692 C95.2151437,46.6694717 94.0456742,47.8305283 92.6153846,47.8305283 C91.1850972,47.8305283 90.0156255,46.6694717 90.0156255,45.2307692 C90.0156255,43.7920668 91.1766822,42.6310102 92.6153846,42.6310102 Z M66.7692308,43.0769231 C65.5745203,43.0769231 64.6153846,44.0360588 64.6153846,45.2307692 C64.6153846,46.4254818 65.5745203,47.3846154 66.7692308,47.3846154 L79.6923077,47.3846154 C80.8870203,47.3846154 81.8461538,46.4254818 81.8461538,45.2307692 C81.8461538,44.0360588 80.8870203,43.0769231 79.6923077,43.0769231 L66.7692308,43.0769231 Z M8.61538462,60.3076923 L103.384615,60.3076923 C105.757213,60.3076923 107.692308,62.2427895 107.692308,64.6153846 L107.692308,77.5384615 C107.692308,79.9110588 105.757213,81.8461538 103.384615,81.8461538 L8.61538462,81.8461538 C6.24278954,81.8461538 4.30769231,79.9110588 4.30769231,77.5384615 L4.30769231,64.6153846 C4.30769231,62.2427895 6.24278954,60.3076923 8.61538462,60.3076923 Z M92.6153846,64.6153846 C89.0564898,64.6153846 86.1538462,67.5180283 86.1538462,71.0769231 C86.1538462,74.6358178 89.0564898,77.5384615 92.6153846,77.5384615 C96.1742794,77.5384615 99.0769231,74.6358178 99.0769231,71.0769231 C99.0769231,67.5180283 96.1742794,64.6153846 92.6153846,64.6153846 Z M15.0769231,66.7692308 C13.8822126,66.7692308 12.9230769,67.7283665 12.9230769,68.9230769 L12.9230769,73.2307692 C12.9230769,74.4254818 13.8822126,75.3846154 15.0769231,75.3846154 C16.2716357,75.3846154 17.2307692,74.4254818 17.2307692,73.2307692 L17.2307692,68.9230769 C17.2307692,67.7283665 16.2716357,66.7692308 15.0769231,66.7692308 Z M25.8461538,66.7692308 C24.6514434,66.7692308 23.6923077,67.7283665 23.6923077,68.9230769 L23.6923077,73.2307692 C23.6923077,74.4254818 24.6514434,75.3846154 25.8461538,75.3846154 C27.0408665,75.3846154 28,74.4254818 28,73.2307692 L28,68.9230769 C28,67.7283665 27.0408665,66.7692308 25.8461538,66.7692308 Z M36.6153846,66.7692308 C35.4206742,66.7692308 34.4615385,67.7283665 34.4615385,68.9230769 L34.4615385,73.2307692 C34.4615385,74.4254818 35.4206742,75.3846154 36.6153846,75.3846154 C37.8100972,75.3846154 38.7692308,74.4254818 38.7692308,73.2307692 L38.7692308,68.9230769 C38.7692308,67.7283665 37.8100972,66.7692308 36.6153846,66.7692308 Z M47.3846154,66.7692308 C46.1899049,66.7692308 45.2307692,67.7283665 45.2307692,68.9230769 L45.2307692,73.2307692 C45.2307692,74.4254818 46.1899049,75.3846154 47.3846154,75.3846154 C48.579328,75.3846154 49.5384615,74.4254818 49.5384615,73.2307692 L49.5384615,68.9230769 C49.5384615,67.7283665 48.579328,66.7692308 47.3846154,66.7692308 Z M58.1538462,66.7692308 C56.9591357,66.7692308 56,67.7283665 56,68.9230769 L56,73.2307692 C56,74.4254818 56.9591357,75.3846154 58.1538462,75.3846154 C59.3485588,75.3846154 60.3076923,74.4254818 60.3076923,73.2307692 L60.3076923,68.9230769 C60.3076923,67.7283665 59.3485588,66.7692308 58.1538462,66.7692308 Z M92.6153846,68.477164 C94.0456742,68.477164 95.2151437,69.6466357 95.2151437,71.0769231 C95.2151437,72.5156255 94.0540871,73.6766822 92.6153846,73.6766822 C91.1766822,73.6766822 90.0156255,72.5072126 90.0156255,71.0769231 C90.0156255,69.6382206 91.1850972,68.477164 92.6153846,68.477164 Z M66.7692308,68.9230769 C65.5745203,68.9230769 64.6153846,69.8822126 64.6153846,71.0769231 C64.6153846,72.2716357 65.5745203,73.2307692 66.7692308,73.2307692 L79.6923077,73.2307692 C80.8870203,73.2307692 81.8461538,72.2716357 81.8461538,71.0769231 C81.8461538,69.8822126 80.8870203,68.9230769 79.6923077,68.9230769 L66.7692308,68.9230769 Z M8.61538462,86.1538462 L103.384615,86.1538462 C105.757213,86.1538462 107.692308,88.0889434 107.692308,90.4615385 L107.692308,103.384615 C107.692308,105.757213 105.757213,107.692308 103.384615,107.692308 L8.61538462,107.692308 C6.24278954,107.692308 4.30769231,105.757213 4.30769231,103.384615 L4.30769231,90.4615385 C4.30769231,88.0889434 6.24278954,86.1538462 8.61538462,86.1538462 Z M92.6153846,90.4615385 C89.0564898,90.4615385 86.1538462,93.3641822 86.1538462,96.9230769 C86.1538462,100.481972 89.0564898,103.384615 92.6153846,103.384615 C96.1742794,103.384615 99.0769231,100.481972 99.0769231,96.9230769 C99.0769231,93.3641822 96.1742794,90.4615385 92.6153846,90.4615385 Z M15.0769231,92.6153846 C13.8822126,92.6153846 12.9230769,93.5745203 12.9230769,94.7692308 L12.9230769,99.0769231 C12.9230769,100.271636 13.8822126,101.230769 15.0769231,101.230769 C16.2716357,101.230769 17.2307692,100.271636 17.2307692,99.0769231 L17.2307692,94.7692308 C17.2307692,93.5745203 16.2716357,92.6153846 15.0769231,92.6153846 Z M25.8461538,92.6153846 C24.6514434,92.6153846 23.6923077,93.5745203 23.6923077,94.7692308 L23.6923077,99.0769231 C23.6923077,100.271636 24.6514434,101.230769 25.8461538,101.230769 C27.0408665,101.230769 28,100.271636 28,99.0769231 L28,94.7692308 C28,93.5745203 27.0408665,92.6153846 25.8461538,92.6153846 Z M36.6153846,92.6153846 C35.4206742,92.6153846 34.4615385,93.5745203 34.4615385,94.7692308 L34.4615385,99.0769231 C34.4615385,100.271636 35.4206742,101.230769 36.6153846,101.230769 C37.8100972,101.230769 38.7692308,100.271636 38.7692308,99.0769231 L38.7692308,94.7692308 C38.7692308,93.5745203 37.8100972,92.6153846 36.6153846,92.6153846 Z M47.3846154,92.6153846 C46.1899049,92.6153846 45.2307692,93.5745203 45.2307692,94.7692308 L45.2307692,99.0769231 C45.2307692,100.271636 46.1899049,101.230769 47.3846154,101.230769 C48.579328,101.230769 49.5384615,100.271636 49.5384615,99.0769231 L49.5384615,94.7692308 C49.5384615,93.5745203 48.579328,92.6153846 47.3846154,92.6153846 Z M58.1538462,92.6153846 C56.9591357,92.6153846 56,93.5745203 56,94.7692308 L56,99.0769231 C56,100.271636 56.9591357,101.230769 58.1538462,101.230769 C59.3485588,101.230769 60.3076923,100.271636 60.3076923,99.0769231 L60.3076923,94.7692308 C60.3076923,93.5745203 59.3485588,92.6153846 58.1538462,92.6153846 Z M92.6153846,94.2307692 C94.1045668,94.2307692 95.3076923,95.4338948 95.3076923,96.9230769 C95.3076923,98.4122591 94.1045668,99.6153846 92.6153846,99.6153846 C91.1262025,99.6153846 89.9230769,98.4122591 89.9230769,96.9230769 C89.9230769,95.4338948 91.1262025,94.2307692 92.6153846,94.2307692 Z M66.7692308,94.7692308 C65.5745203,94.7692308 64.6153846,95.7283665 64.6153846,96.9230769 C64.6153846,98.1177895 65.5745203,99.0769231 66.7692308,99.0769231 L79.6923077,99.0769231 C80.8870203,99.0769231 81.8461538,98.1177895 81.8461538,96.9230769 C81.8461538,95.7283665 80.8870203,94.7692308 79.6923077,94.7692308 L66.7692308,94.7692308 Z" id="Shape"></path>
            </g>
        </g>
    </g>
</svg>