<?xml version="1.0" encoding="UTF-8"?>
<svg width="112px" height="112px" viewBox="0 0 112 112" version="1.1" xmlns="http://www.w3.org/2000/svg" xmlns:xlink="http://www.w3.org/1999/xlink">
    <!-- Generator: Sketch 51.2 (57519) - http://www.bohemiancoding.com/sketch -->
    <title>growtn</title>
    <desc>Created with Sketch.</desc>
    <defs>
        <linearGradient x1="50%" y1="94.4449341%" x2="50%" y2="0%" id="linearGradient-1">
            <stop stop-color="#C822FF" offset="0%"></stop>
            <stop stop-color="#1A6DFF" offset="100%"></stop>
        </linearGradient>
    </defs>
    <g id="growtn" stroke="none" stroke-width="1" fill="none" fill-rule="evenodd">
        <g id="SVG-Layer" transform="translate(0.000000, 16.000000)" fill="url(#linearGradient-1)" fill-rule="nonzero">
            <g id="surface1">
                <path d="M6,0 C2.695312,0 0,2.695312 0,6 L0,90 C0,93.304688 2.695312,96 6,96 L106,96 C109.304688,96 112,93.304688 112,90 L112,6 C112,2.695312 109.304688,0 106,0 L6,0 Z M6,4 L106,4 C107.101562,4 108,4.898438 108,6 L108,90 C108,91.101562 107.101562,92 106,92 L6,92 C4.898438,92 4,91.101562 4,90 L4,24 L86,24 C87.109376,24 88,23.101562 88,22 C88,20.898438 87.109376,20 86,20 L4,20 L4,6 C4,4.898438 4.898438,4 6,4 Z M12,8 C10.890626,8 10,8.898438 10,10 L10,14 C10,15.101562 10.890626,16 12,16 C13.109376,16 14,15.101562 14,14 L14,10 C14,8.898438 13.109376,8 12,8 Z M22,8 C20.890626,8 20,8.898438 20,10 L20,14 C20,15.101562 20.890626,16 22,16 C23.109376,16 24,15.101562 24,14 L24,10 C24,8.898438 23.109376,8 22,8 Z M32,8 C30.890626,8 30,8.898438 30,10 L30,14 C30,15.101562 30.890626,16 32,16 C33.109376,16 34,15.101562 34,14 L34,10 C34,8.898438 33.109376,8 32,8 Z M42,8 C40.890626,8 40,8.898438 40,10 L40,14 C40,15.101562 40.890626,16 42,16 C43.109376,16 44,15.101562 44,14 L44,10 C44,8.898438 43.109376,8 42,8 Z M52,8 C50.890626,8 50,8.898438 50,10 L50,14 C50,15.101562 50.890626,16 52,16 C53.109376,16 54,15.101562 54,14 L54,10 C54,8.898438 53.109376,8 52,8 Z M62,8 C60.890626,8 60,8.898438 60,10 L60,14 C60,15.101562 60.890626,16 62,16 C63.109376,16 64,15.101562 64,14 L64,10 C64,8.898438 63.109376,8 62,8 Z M72,8 C70.890626,8 70,8.898438 70,10 L70,14 C70,15.101562 70.890626,16 72,16 C73.109376,16 74,15.101562 74,14 L74,10 C74,8.898438 73.109376,8 72,8 Z M82,8 C80.890626,8 80,8.898438 80,10 L80,14 C80,15.101562 80.890626,16 82,16 C83.109376,16 84,15.101562 84,14 L84,10 C84,8.898438 83.109376,8 82,8 Z M92,8 C90.890626,8 90,8.898438 90,10 L90,14 C90,15.101562 90.890626,16 92,16 C93.109376,16 94,15.101562 94,14 L94,10 C94,8.898438 93.109376,8 92,8 Z M102,8 C100.890626,8 100,8.898438 100,10 L100,14 C100,15.101562 100.890626,16 102,16 C103.109376,16 104,15.101562 104,14 L104,10 C104,8.898438 103.109376,8 102,8 Z M94,20 C92.890626,20 92,20.898438 92,22 C92,23.101562 92.890626,24 94,24 L102,24 C103.109376,24 104,23.101562 104,22 C104,20.898438 103.109376,20 102,20 L94,20 Z M45.03125,32 C43.921876,32 43.03125,32.898438 43.03125,34 C43.03125,35.101562 43.921876,36 45.03125,36 L53.171876,36 L22.585938,66.585938 C21.804688,67.367188 21.804688,68.632812 22.585938,69.414062 C22.976562,69.804688 23.484376,70 24,70 C24.515626,70 25.023438,69.804688 25.414062,69.414062 L56,38.828126 L56,46.96875 C56,48.070312 56.890626,48.96875 58,48.96875 C59.109376,48.96875 60,48.070312 60,46.96875 L60,34 C60,33.742188 59.953126,33.476562 59.84375,33.234376 C59.648438,32.742188 59.257812,32.351562 58.765626,32.15625 C58.523438,32.054688 58.257812,32 58,32 L45.03125,32 Z M82,32 C80.890626,32 80,32.898438 80,34 L80,44 L70,44 C68.890626,44 68,44.898438 68,46 L68,56 L58,56 C56.890626,56 56,56.898438 56,58 L56,68 L46,68 C44.890626,68 44,68.898438 44,70 L44,78 L34,78 C32.890626,78 32,78.898438 32,80 L32,84 L18,84 C16.890626,84 16,84.898438 16,86 C16,87.101562 16.890626,88 18,88 L98,88 C99.109376,88 100,87.101562 100,86 C100,84.898438 99.109376,84 98,84 L96,84 L96,34 C96,32.898438 95.109376,32 94,32 L82,32 Z M84,36 L92,36 L92,84 L84,84 L84,36 Z M72,48 L80,48 L80,84 L72,84 L72,48 Z M60,60 L68,60 L68,84 L60,84 L60,60 Z M18.625,71.375 C18.117188,71.375 17.601562,71.570312 17.210938,71.960938 L14.585938,74.585938 C13.804688,75.367188 13.804688,76.632812 14.585938,77.414062 C14.976562,77.804688 15.484376,78 16,78 C16.515626,78 17.023438,77.804688 17.414062,77.414062 L20.039062,74.789062 C20.820312,74.007812 20.820312,72.742188 20.039062,71.960938 C19.648438,71.570312 19.132812,71.375 18.625,71.375 Z M48,72 L56,72 L56,84 L48,84 L48,72 Z M36,82 L44,82 L44,84 L36,84 L36,82 Z" id="Shape"></path>
            </g>
        </g>
    </g>
</svg>