<svg height="112" viewBox="0 0 112 112" width="112" xmlns="http://www.w3.org/2000/svg" xmlns:xlink="http://www.w3.org/1999/xlink"><linearGradient id="a" x1="50%" x2="50%" y1="94.444934%" y2="0%"><stop offset="0" stop-color="#c822ff"/><stop offset="1" stop-color="#1a6dff"/></linearGradient><path d="m56.4415517 0c-2.7688889 0-5.3762281 1.08026841-7.3362281 3.03819455l-46.06712905 46.07117965c-1.95792614 1.96-3.03819455 4.5632886-3.03819455 7.3321775v40.6793976c0 3.2106667 2.50745828 5.9344117 5.70775458 6.2019667l99.16261542 8.263889c.174223.014519.346371.020255.518519.020255 1.642667 0 3.221329-.64899 4.395255-1.822916 1.296297-1.296296 1.954068-3.090565 1.802661-4.917824l-8.263889-99.15856542c-.265481-3.2002963-2.993374-5.70775458-6.2019667-5.70775458zm0 4.14814815h39.4884249l-21.761573 21.76157515-14.2025479-18.26157515c-.7051852-.90637037-2.0084151-1.06562048-2.9085633-.36458323-.9042963.70311111-1.0717466 2.00426841-.3686355 2.90856468l14.5266219 18.6747691-40.4120391 40.4079863-2.5439804-38.1637739h19.8535887c1.1448889 0 2.0740741-.9291852 2.0740741-2.0740741s-.9291852-2.074074-2.0740741-2.074074h-17.062501l20.9918986-20.99189829c1.176-1.17599979 2.7379728-1.82291656 4.3993061-1.82291656zm42.8020818 2.55613431.9074075 10.88888914-.7089124-.7089123c-.8109609-.810963-2.1219064-.810963-2.9328693 0-.810963.8109629-.810963 2.1219063 0 2.9328714l2.9328693 2.9328693c.3318518.3318519.7555144.4907778 1.1869224.5509259l6.457175 77.5144681-30.6493039-71.3043979zm-8.600115 16.90451284c-.5304444 0-1.0609532.2021579-1.4664346.6076394-.810963.8109629-.810963 2.1219084 0 2.9328714l2.9328693 2.93692c.4044444.4044444.9354717.6076394 1.4664367.6076394.530963 0 1.0619902-.203195 1.4664347-.6076394.810963-.810963.810963-2.1219064 0-2.9328694l-2.9328714-2.936922c-.4054815-.4054815-.9359902-.6076374-1.4664347-.6076394zm-32.2210643 3.3541677c-1.1448889 0-2.0740741.9291851-2.0740741 2.074074s.9271112 2.0740741 2.0740741 2.0740741h6.7407408c1.1448889 0 2.074074-.9291852 2.074074-2.0740741s-.9291851-2.074074-2.074074-2.074074zm24.8888889 3.9780097c-.5304444 0-1.0609532.202158-1.4664347.6076394-.8109629.8109609-.810965 2.1219064 0 2.9328694l2.9328694 2.9328693c.4044444.4044465.9354717.6076394 1.4664346.6076394.530963 0 1.0619903-.2031929 1.4664347-.6076394.810963-.8109609.810965-2.1219064 0-2.9328693l-2.9328693-2.9328694c-.4054815-.4054814-.9359902-.6076394-1.4664347-.6076394zm-10.0341443 1.725694 30.6168982 71.2274303-71.2274303-30.6168982zm-49.0040507 1.0694444 2.6331014 39.4357642-22.75810135 22.7581013v-38.6863431l6.12094915 4.7638889c.3774815.2945185.8260647.4334503 1.2719906.4334503.6180741 0 1.232033-.2732924 1.6406256-.7980331.7031111-.9042963.5397135-2.2095049-.3645828-2.912616l-7.53067242-5.8576374c.20533333-.2924444.42742125-.5711813.68460643-.8304406zm44.3697915 11.8732631c-.5304445 0-1.0609532.2021579-1.4664347.6076394-.810963.810963-.810963 2.1219085 0 2.9328714l2.9328693 2.9328694c.4044445.4044444.9354738.6076394 1.4664368.6076394.5309629 0 1.0619902-.203195 1.4664346-.6076394.810963-.810963.810963-2.1219064 0-2.9328694l-2.9328714-2.9328714c-.4054815-.4054815-.9359902-.6076394-1.4664346-.6076394zm-7.3321755 7.3321775c-.5304444 0-1.0609531.2021559-1.4664346.6076373-.810963.810963-.810963 2.1219085 0 2.9328714l2.93692 2.9328694c.4044444.4044444.9354717.6076394 1.4664346.6076394.5309651 0 1.0619923-.203195 1.4664368-.6076394.810963-.810963.810963-2.1219064 0-2.9328694l-2.9369221-2.9328714c-.4054815-.4054814-.9359902-.6076373-1.4664347-.6076373zm-7.3321754 7.3321754c-.5304444 0-1.0609552.2021579-1.4664367.6076394-.810963.810963-.810963 2.1219064 0 2.9328694l2.9328714 2.936922c.4044445.4044445.9354717.6076394 1.4664347.6076374.5309629 0 1.0619902-.2031929 1.4664346-.6076374.810963-.8109629.810963-2.1219084 0-2.9328714l-2.9328693-2.93692c-.4054815-.4054815-.9359902-.6076394-1.4664347-.6076394zm-36.0572924 3.1961793c-.5265556.0658518-1.0257582.332696-1.3773159.7858812-.7031111.9042963-.5397114 2.2095048.3645849 2.912616l4.7557855 3.7025457c.3774836.2945186.8260664.4334483 1.2719923.4334483.6180741 0 1.2320311-.2773431 1.6406237-.8020817.7031111-.9022243.5397135-2.2054543-.3645828-2.9085654l-4.7598382-3.7025458c-.4521482-.3515555-1.0046939-.4871481-1.5312495-.4212983zm28.725115 4.1359961c-.5304445 0-1.0609532.2021579-1.4664347.6076394-.810963.810963-.810963 2.1219064 0 2.9328694l2.9328714 2.9328714c.4044444.4044444.9354717.6076394 1.4664347.6076394.5309629 0 1.0619902-.203195 1.4664346-.6076394.810963-.810963.810963-2.1219085 0-2.9328714l-2.9328693-2.9328694c-.4054815-.4054815-.9359923-.6076394-1.4664367-.6076394zm-17.1354152 8.8310196 71.3043979 30.6493039-79.090279-6.590856c-.0041482-.004148-.0080039-.012054-.012152-.016204l-2.9328694-2.9328697c-.810965-.810963-2.1219084-.810963-2.9328714 0-.6616296.6616296-.7511383 1.6444815-.3321754 2.4305556l-8.81076434-.7332184zm2.4670137 5.837384c-.5304445 0-1.0609553.2021558-1.4664347.6076394-.810965.8109609-.810963 2.1219064 0 2.9328693l2.9328693 2.9328693c.4044445.4044466.9354717.6076395 1.4664347.6076395s1.0619902-.2031929 1.4664347-.6076395c.8109629-.8109608.810965-2.1219063 0-2.9328693l-2.9328694-2.9328693c-.4054814-.4054815-.9359902-.6076394-1.4664346-.6076394zm-7.3321775 7.3321754c-.5304424 0-1.0609532.2021579-1.4664347.6076394-.8109629.810963-.8109629 2.1219064 0 2.9328693l2.9369221 2.9328714c.4044444.4044445.9354717.6076374 1.4664347.6076394.5309629 0 1.0619902-.2031949 1.4664346-.6076394.810963-.8109629.810963-2.1219084 0-2.9328714l-2.93692-2.9328693c-.4054814-.4054815-.9359923-.6076394-1.4664367-.6076394z" fill="url(#a)"/></svg>