<svg xmlns="http://www.w3.org/2000/svg" width="65" height="52" viewBox="0 0 65 52">
    <defs>
        <linearGradient id="a" x1="50%" x2="50%" y1="0%" y2="100%">
            <stop offset="0%" stop-color="#6DC7FF"/>
            <stop offset="100%" stop-color="#E6ABFF"/>
        </linearGradient>
        <linearGradient id="b" x1="50%" x2="50%" y1="3.125%" y2="96.927%">
            <stop offset="0%" stop-color="#6DC7FF"/>
            <stop offset="100%" stop-color="#E6ABFF"/>
        </linearGradient>
        <linearGradient id="c" x1="50%" x2="50%" y1="-1.984%" y2="101.3%">
            <stop offset="0%" stop-color="#1A6DFF"/>
            <stop offset="100%" stop-color="#C822FF"/>
        </linearGradient>
    </defs>
    <g fill="none" fill-rule="nonzero">
        <circle cx="35.905" cy="26" r="2.476" fill="url(#a)"/>
        <circle cx="26" cy="26" r="2.476" fill="url(#a)"/>
        <circle cx="35.905" cy="40.857" r="2.476" fill="url(#b)"/>
        <circle cx="26" cy="40.857" r="2.476" fill="url(#b)"/>
        <path fill="url(#c)" d="M60.667 39.619a3.719 3.719 0 0 0 3.714-3.714V3.715A3.719 3.719 0 0 0 60.667 0H16.095a3.719 3.719 0 0 0-3.714 3.714v11.143H7.429a3.719 3.719 0 0 0-3.715 3.714v1.239A3.719 3.719 0 0 0 0 23.524v4.952a3.719 3.719 0 0 0 3.714 3.714v2.477A3.719 3.719 0 0 0 0 38.38v4.952a3.719 3.719 0 0 0 3.714 3.715v1.238c0 .436.09.849.228 1.238H0V52h64.381v-2.476h-6.382l-1.455-2.908a3.672 3.672 0 0 0-3.306-2.045h-3.714V39.62h11.143zM14.857 3.714c0-.683.555-1.238 1.238-1.238h44.572c.683 0 1.238.555 1.238 1.238v32.19c0 .684-.555 1.239-1.238 1.239H44.344c-.513-1.438-1.875-2.476-3.487-2.476h16.095a2.479 2.479 0 0 0 2.477-2.477V7.43a2.479 2.479 0 0 0-2.477-2.477H19.81a2.479 2.479 0 0 0-2.477 2.477v7.428h-2.476V3.714zm26 16.096V18.57a3.719 3.719 0 0 0-3.714-3.714H19.81V7.43h37.142V32.19H40.857a3.719 3.719 0 0 0 3.714-3.714v-4.952a3.719 3.719 0 0 0-3.714-3.714zM6.19 18.57c0-.683.555-1.238 1.239-1.238h29.714c.683 0 1.238.555 1.238 1.238v1.239H6.191V18.57zm-3.714 9.905v-4.952c0-.684.555-1.238 1.238-1.238h37.143c.684 0 1.238.554 1.238 1.238v4.952c0 .684-.554 1.238-1.238 1.238H18.571v-1.238A2.479 2.479 0 0 0 16.095 26H8.667a2.479 2.479 0 0 0-2.477 2.476v1.238H3.714a1.239 1.239 0 0 1-1.238-1.238zm13.62 1.238h-7.43v-1.238h7.43v1.238zM6.19 32.19h32.191v2.477H6.191V32.19zM2.476 43.333v-4.952c0-.683.555-1.238 1.238-1.238h37.143c.684 0 1.238.555 1.238 1.238v4.952c0 .684-.554 1.238-1.238 1.238H18.571v-1.238a2.479 2.479 0 0 0-2.476-2.476H8.667a2.479 2.479 0 0 0-2.477 2.476v1.238H3.714a1.239 1.239 0 0 1-1.238-1.238zm13.62 1.238h-7.43v-1.238h7.43v1.238zm-8.667 4.953a1.239 1.239 0 0 1-1.239-1.238v-1.238h32.191v1.238c0 .683-.555 1.238-1.238 1.238H7.429zm46.901-1.802l.9 1.802h-14.6c.138-.389.227-.802.227-1.238v-1.238h12.381c.466 0 .884.258 1.092.674zm-7.282-3.15h-2.704c.138-.39.227-.803.227-1.239V39.62h2.477v4.952z"/>
    </g>
</svg>
