<svg xmlns="http://www.w3.org/2000/svg" width="52" height="52" viewBox="0 0 52 52">
    <defs>
        <linearGradient id="a" x1="50%" x2="50%" y1=".641%" y2="100.349%">
            <stop offset="0%" stop-color="#1A6DFF"/>
            <stop offset="100%" stop-color="#C822FF"/>
        </linearGradient>
        <linearGradient id="b" x1="50%" x2="50%" y1="0%" y2="100%">
            <stop offset="0%" stop-color="#6DC7FF"/>
            <stop offset="100%" stop-color="#E6ABFF"/>
        </linearGradient>
    </defs>
    <g fill="none" fill-rule="nonzero">
        <path fill="url(#a)" d="M26 52C11.663 52 0 40.337 0 26S11.663 0 26 0s26 11.663 26 26-11.663 26-26 26zm0-50C12.767 2 2 12.767 2 26s10.767 24 24 24 24-10.767 24-24S39.233 2 26 2z"/>
        <path fill="url(#b)" d="M17.41.57l-.75.3-13.53 5.1-1.11.42.66.99 2.88 4.38V12l-.57.42-4.8 3.6.9.78 4.47 3.96v7.38l.45.27 10.56 6.72.42.27 15.84-6.93.57-.24v-6.75l1.38-.69.93-.48-.54-.87-2.73-4.56v-.72l3.57-3.81.87-.9-1.11-.6-8.58-4.59-.45-.24-.45.24-.96.51-5.01-2.07-.33-.12-.36.12-.84.3-.96-1.71-.42-.72zm-.87 2.37l.42.75-3.09 1.14-.63.24V6.9l-.45-.27-.42-.27-.42.18-5.76 2.22-.24.09-.99-1.5 11.58-4.41zm3.39 1.68l4.83 2.01v2.49l-4.71 2.04-4.89-3.06V6.39l4.77-1.77zm6.84 1.56l7.02 3.78-1.35 1.44v-.63l-.57-.27-4.8-2.04-.39-.15V6.24l.09-.06zM12.19 8.49l4.92 3.09-4.74 1.86-4.77-3.18 4.59-1.77zm14.49 1.92l2.31.99-4.23 2.04-2.34-1.23 4.26-1.8zm-19.2 2.04l3.84 2.58v1.29l-3.84-2.88v-.99zm23.04.33v1.71l-4.8 2.25v-1.65l4.8-2.31zM19 12.9v2.55l-5.61 2.4-.15-.12v-2.58L19 12.9zm1.92.69l2.88 1.53v1.95l-2.88-1.56v-1.92zm-15.36.81l8.55 6.42-3.6 1.8-7.26-6.48 2.31-1.74zm25.56 1.95l1.89 3.15-11.73 5.88-2.1-3.45 11.94-5.58zm-11.22.78l2.31 1.26-5.01 2.34-2.07-1.56 4.77-2.04zm-4.08 4.98l.3.21v10.26l-8.64-5.49v-4.62l2.25 2.01.48.42.57-.27 5.04-2.52zm15.66.33v4.53l-13.44 5.88v-9.18l2.07 3.45.45.78 10.92-5.46z" transform="translate(7 8)"/>
    </g>
</svg>
