<svg xmlns="http://www.w3.org/2000/svg" width="48" height="52" viewBox="0 0 48 52">
    <defs>
        <linearGradient id="a" x1="50%" x2="50%" y1="1.563%" y2="106.263%">
            <stop offset="0%" stop-color="#6DC7FF"/>
            <stop offset="100%" stop-color="#E6ABFF"/>
        </linearGradient>
        <linearGradient id="b" x1="50%" x2="50%" y1="-7.5%" y2="107.496%">
            <stop offset="0%" stop-color="#6DC7FF"/>
            <stop offset="100%" stop-color="#E6ABFF"/>
        </linearGradient>
        <linearGradient id="c" x1="50%" x2="50%" y1="-1.923%" y2="101.456%">
            <stop offset="0%" stop-color="#1A6DFF"/>
            <stop offset="100%" stop-color="#C822FF"/>
        </linearGradient>
        <linearGradient id="d" x1="50%" x2="50%" y1="-1400%" y2="1287.85%">
            <stop offset="0%" stop-color="#1A6DFF"/>
            <stop offset="100%" stop-color="#C822FF"/>
        </linearGradient>
    </defs>
    <g fill="none" fill-rule="nonzero">
        <circle cx="29" cy="33" r="2" fill="url(#a)"/>
        <circle cx="17" cy="33" r="2" fill="url(#a)"/>
        <path fill="url(#b)" d="M26 37h-6a1 1 0 0 0-1 1h.001H19c0 2 1.791 4 4 4a4 4 0 0 0 4-4 1 1 0 0 0-1-1z"/>
        <path fill="url(#c)" d="M46 27c0-1.654-1.346-3-3-3h-1c0-8.378-5.458-15.494-13-18.014V5c0-1.654-1.346-3-3-3-.395 0-.77.081-1.116.22A2.995 2.995 0 0 0 22 0c-1.654 0-3 1.346-3 3v2.433A18.969 18.969 0 0 0 7.517 13H0v3c0 2.815 1.675 5.242 4.078 6.352A19.22 19.22 0 0 0 4 24v1.101A5.009 5.009 0 0 0 0 30c0 2.757 2.243 5 5 5h1.266a17.001 17.001 0 0 0 12.788 13.527C19.314 50.482 20.974 52 23 52h6c1.859 0 3.411-1.28 3.858-3H36c3.859 0 7-3.141 7-7v-6c1.654 0 3-1.346 3-3 1.103 0 2-.897 2-2v-2c0-1.103-.897-2-2-2zM26 4a1 1 0 0 1 1 1v.432a19.117 19.117 0 0 0-2-.325V5a1 1 0 0 1 1-1zm-5-1a1 1 0 0 1 2 0v2c-.673 0-1.339.043-2 .113V3zm2 4c9.374 0 17 7.626 17 17h-2v5h-1a1 1 0 0 1-1-1v-4c0-1.654-1.346-3-3-3h-7v-1c0-3.859-3.141-7-7-7h-8.957A16.97 16.97 0 0 1 23 7zM2 16v-1h17c2.757 0 5 2.243 5 5v1H7c-2.757 0-5-2.243-5-5zm3 17c-1.654 0-3-1.346-3-3s1.346-3 3-3h1v5c0 .335.01.669.029 1H5zm1-8v-1c0-.359.037-.714.059-1.071.309.042.621.071.941.071h3.184A2.966 2.966 0 0 0 10 24v4a1 1 0 0 1-1 1H8v-4H6zm2 7v-1h1c1.654 0 3-1.346 3-3v-4a1 1 0 0 1 1-1h20a1 1 0 0 1 1 1v4c0 1.654 1.346 3 3 3h1v1c0 5.098-2.626 9.864-6.893 12.615A3.956 3.956 0 0 0 29 44h-6a3.999 3.999 0 0 0-3.71 2.525C12.698 44.85 8 38.89 8 32zm21 18h-6c-1.103 0-2-.897-2-2s.897-2 2-2h6c1.103 0 2 .897 2 2s-.897 2-2 2zm12-8c0 2.757-2.243 5-5 5h-3.142a3.972 3.972 0 0 0-.36-.901A17.078 17.078 0 0 0 39.51 36H41v6zm3-9a1 1 0 0 1-1 1h-3v-8h3a1 1 0 0 1 1 1v6z"/>
        <path fill="url(#d)" d="M26 27h6v2h-6zM14 27h6v2h-6z"/>
    </g>
</svg>
