<svg xmlns="http://www.w3.org/2000/svg" width="59" height="52" viewBox="0 0 59 52">
    <defs>
        <linearGradient id="a" x1="50%" x2="50%" y1="-8.333%" y2="106.25%">
            <stop offset="0%" stop-color="#6DC7FF"/>
            <stop offset="100%" stop-color="#E6ABFF"/>
        </linearGradient>
        <linearGradient id="b" x1="50%" x2="50%" y1="0%" y2="117.248%">
            <stop offset="0%" stop-color="#1A6DFF"/>
            <stop offset="100%" stop-color="#C822FF"/>
        </linearGradient>
        <linearGradient id="c" x1="50%" x2="50%" y1="-109.091%" y2="104.086%">
            <stop offset="0%" stop-color="#1A6DFF"/>
            <stop offset="100%" stop-color="#C822FF"/>
        </linearGradient>
        <linearGradient id="d" x1="50%" x2="50%" y1="-387.5%" y2="198.738%">
            <stop offset="0%" stop-color="#1A6DFF"/>
            <stop offset="100%" stop-color="#C822FF"/>
        </linearGradient>
        <linearGradient id="e" x1="50%" x2="50%" y1="-25%" y2="170.412%">
            <stop offset="0%" stop-color="#1A6DFF"/>
            <stop offset="100%" stop-color="#C822FF"/>
        </linearGradient>
    </defs>
    <g fill="none" fill-rule="nonzero">
        <circle cx="46.348" cy="39.565" r="3.391" fill="url(#a)"/>
        <path fill="url(#b)" d="M2.26 37.304V3.391c0-.624.507-1.13 1.131-1.13h40.696c.624 0 1.13.506 1.13 1.13V24.87h2.261V3.39A3.395 3.395 0 0 0 44.087 0H3.391A3.395 3.395 0 0 0 0 3.391v38.435a3.395 3.395 0 0 0 3.391 3.391h28.261v-2.26H3.392a1.13 1.13 0 0 1-1.131-1.13v-1.34c0 .127.732.209 1.13.209h28.261v-2.261H3.392a1.13 1.13 0 0 1-1.131-1.13z"/>
        <path fill="url(#c)" d="M56.522 36.174h-.546c-.127 0-.274-.711-.431-1.004l.396-.39a2.25 2.25 0 0 0 0-3.187l-1.599-1.578c-.428-.428-.996-.624-1.6-.624h-.002c-.603 0-1.17.197-1.596.623l-.417.378c-.32-.154-.988-.29-.988-.41v-.59a2.263 2.263 0 0 0-2.26-2.262h-2.262a2.263 2.263 0 0 0-2.26 2.261v.59c0 .12-.667.276-.988.43l-.416-.397c-.427-.426-.994-.623-1.598-.623h-.002c-.604 0-1.171.196-1.598.623l-1.599 1.559a2.262 2.262 0 0 0 0 3.197l.396.396c-.157.291-.304 1.008-.432 1.008h-.546a2.263 2.263 0 0 0-2.261 2.26v2.262a2.263 2.263 0 0 0 2.26 2.26h.547c.127 0 .273.712.43 1.005l-.395.39a2.25 2.25 0 0 0 0 3.187l1.598 1.578c.428.428.995.622 1.599.622h.002c.604 0 1.171-.196 1.596-.622l.417-.376c.323.154.99.29.99.41v.59a2.263 2.263 0 0 0 2.26 2.26h2.261a2.263 2.263 0 0 0 2.261-2.26v-.59c0-.119.667-.276.988-.43l.416.396c.426.428.994.623 1.597.623h.003c.603 0 1.17-.194 1.598-.622l1.599-1.557a2.262 2.262 0 0 0 0-3.197l-.396-.396c.157-.294.304-1.01.432-1.01h.546a2.263 2.263 0 0 0 2.26-2.261v-2.261a2.263 2.263 0 0 0-2.26-2.261zm0 4.522h-2.363l-.174.919c-.16.842-.37 1.198-.722 1.787l-.55.93 1.628 1.627-1.598 1.598-1.63-1.626-.753.445a7.829 7.829 0 0 1-2.033.841l-.849.22v2.302h-2.26v-2.303l-.85-.218a7.829 7.829 0 0 1-2.032-.84l-.754-.446-1.629 1.627-1.598-1.599 1.627-1.628-.549-.929c-.352-.589-.562-.945-.722-1.787l-.174-.92h-2.363v-2.261h2.363l.174-.92c.159-.84.37-1.195.72-1.782l.551-.934-1.627-1.626 1.598-1.599 1.629 1.627.754-.446a7.829 7.829 0 0 1 2.032-.84l.85-.22v-2.304h2.26v2.304l.85.218c.715.185 1.399.467 2.032.841l.754.446 1.629-1.627 1.598 1.598-1.628 1.627.55.934c.351.588.563.943.722 1.783l.174.92h2.363v2.26z"/>
        <path fill="url(#d)" d="M46.348 35.043a4.526 4.526 0 0 0-4.522 4.522 4.526 4.526 0 0 0 4.522 4.522 4.526 4.526 0 0 0 4.522-4.522 4.526 4.526 0 0 0-4.522-4.522zm0 6.783a2.263 2.263 0 0 1-2.261-2.26 2.263 2.263 0 0 1 2.26-2.262 2.263 2.263 0 0 1 2.262 2.261 2.263 2.263 0 0 1-2.261 2.261z"/>
        <path fill="url(#e)" d="M33.913 33.913V17.926c2.26-.505 3.391-2.26 3.391-4.36 0-2.102-1.445-3.857-3.391-4.362V6.783h-2.26v2.421c-1.946.505-3.392 2.26-3.392 4.361 0 2.102 1.446 3.856 3.391 4.361v15.987h2.261zm-3.391-20.348a2.263 2.263 0 0 1 2.26-2.26 2.263 2.263 0 0 1 2.261 2.26 2.263 2.263 0 0 1-2.26 2.261 2.263 2.263 0 0 1-2.261-2.26zM24.87 33.913v-4.682c2.26-.506 3.39-2.26 3.39-4.361 0-2.102-1.445-3.856-3.39-4.362V6.783h-2.261v13.725c-1.945.506-3.392 2.26-3.392 4.362 0 2.101 1.13 3.855 3.392 4.36v4.683h2.26zm-3.392-9.043a2.263 2.263 0 0 1 2.261-2.261A2.263 2.263 0 0 1 26 24.869a2.263 2.263 0 0 1-2.26 2.261 2.263 2.263 0 0 1-2.262-2.26zM15.826 33.913V21.318c2.261-.506 3.391-2.26 3.391-4.361 0-2.102-1.447-3.856-3.39-4.362V6.783h-2.262v5.812c-1.944.506-3.391 2.26-3.391 4.362 0 2.101 1.447 3.855 3.391 4.36v12.596h2.261zm-3.391-16.956a2.263 2.263 0 0 1 2.26-2.261 2.263 2.263 0 0 1 2.262 2.26 2.263 2.263 0 0 1-2.261 2.261 2.263 2.263 0 0 1-2.261-2.26z"/>
    </g>
</svg>
