<svg xmlns="http://www.w3.org/2000/svg" width="48" height="52" viewBox="0 0 48 52">
    <defs>
        <linearGradient id="a" x1="50%" x2="50%" y1="-10.416%" y2="120.85%">
            <stop offset="0%" stop-color="#6DC7FF"/>
            <stop offset="100%" stop-color="#E6ABFF"/>
        </linearGradient>
        <linearGradient id="b" x1="50%" x2="50%" y1="-.962%" y2="102.159%">
            <stop offset="0%" stop-color="#1A6DFF"/>
            <stop offset="100%" stop-color="#C822FF"/>
        </linearGradient>
    </defs>
    <g fill="none" fill-rule="nonzero">
        <circle cx="37" cy="11" r="4" fill="url(#a)"/>
        <path fill="url(#b)" d="M48 11c0-6.065-4.935-11-11-11-5.933 0-10.781 4.722-10.99 10.605A21.053 21.053 0 0 0 21 10C9.421 10 0 19.421 0 31s9.421 21 21 21 21-9.421 21-21c0-2.141-.323-4.242-.954-6.263C44.298 21.906 48 16.729 48 11zM37 2c4.963 0 9 4.037 9 9 0 7.573-7.605 13.924-8.996 14C35.605 24.924 28 18.573 28 11c0-4.963 4.037-9 9-9zm-1 29c0 5.332-2.798 10.019-7 12.679V39c0-1.103-.897-2-2-2h-3a1 1 0 0 1-1-1v-2a1 1 0 0 1 1-1h5c1.103 0 2-.897 2-2v-2c0-1.103-.897-2-2-2h-3a1 1 0 0 1-1-1v-9.459c.858.237 1.697.55 2.51.942 1.963 4.281 5.417 7.632 7.772 8.93C35.756 27.89 36 29.432 36 31zm-24-6h4a1 1 0 0 1 1 1v3a1 1 0 0 1-1 1h-1c-1.654 0-3 1.346-3 3v4a1 1 0 0 1-1 1H7.739A14.908 14.908 0 0 1 6 31c0-3.929 1.52-7.507 4-10.184V23c0 1.103.897 2 2 2zm-1 15c1.654 0 3-1.346 3-3v-4a1 1 0 0 1 1-1h1c1.654 0 3-1.346 3-3v-3c0-1.654-1.346-3-3-3h-4v-3.992a14.92 14.92 0 0 1 11-2.872V26c0 1.654 1.346 3 3 3h3v2h-5c-1.654 0-3 1.346-3 3v2c0 1.654 1.346 3 3 3h3v5.744A14.907 14.907 0 0 1 21 46c-4.897 0-9.253-2.359-11.992-6H11zm29-9c0 10.477-8.523 19-19 19S2 41.477 2 31s8.523-19 19-19c1.738 0 3.452.247 5.111.709.095.755.247 1.498.451 2.223A16.871 16.871 0 0 0 21 14a16.924 16.924 0 0 0-10.938 4H10v.054C6.333 21.175 4 25.819 4 31c0 9.374 7.626 17 17 17 9.374 0 17-7.626 17-17 0-1.382-.167-2.747-.494-4.075.509-.13 1.139-.433 1.838-.888.435 1.61.656 3.272.656 4.963z"/>
    </g>
</svg>
