<svg xmlns="http://www.w3.org/2000/svg" width="57" height="52" viewBox="0 0 57 52">
    <defs>
        <linearGradient id="a" x1="50.002%" x2="50.002%" y1="-8.333%" y2="105.627%">
            <stop offset="0%" stop-color="#6DC7FF"/>
            <stop offset="100%" stop-color="#E6ABFF"/>
        </linearGradient>
        <linearGradient id="b" x1="49.998%" x2="49.998%" y1="-1025%" y2="1426.33%">
            <stop offset="0%" stop-color="#1A6DFF"/>
            <stop offset="100%" stop-color="#C822FF"/>
        </linearGradient>
        <linearGradient id="c" x1="49.998%" x2="49.998%" y1="-425%" y2="2026.33%">
            <stop offset="0%" stop-color="#1A6DFF"/>
            <stop offset="100%" stop-color="#C822FF"/>
        </linearGradient>
        <linearGradient id="d" x1="50%" x2="50%" y1="-1.042%" y2="101.098%">
            <stop offset="0%" stop-color="#1A6DFF"/>
            <stop offset="100%" stop-color="#C822FF"/>
        </linearGradient>
        <linearGradient id="e" x1="49.998%" x2="49.998%" y1="-1025%" y2="1426.33%">
            <stop offset="0%" stop-color="#1A6DFF"/>
            <stop offset="100%" stop-color="#C822FF"/>
        </linearGradient>
        <linearGradient id="f" x1="49.998%" x2="49.998%" y1="-1625%" y2="826.33%">
            <stop offset="0%" stop-color="#1A6DFF"/>
            <stop offset="100%" stop-color="#C822FF"/>
        </linearGradient>
        <linearGradient id="g" x1="49.998%" x2="49.998%" y1="-425%" y2="2026.33%">
            <stop offset="0%" stop-color="#1A6DFF"/>
            <stop offset="100%" stop-color="#C822FF"/>
        </linearGradient>
    </defs>
    <g fill="none" fill-rule="nonzero">
        <path fill="url(#a)" d="M43.636 43.702l1.495 2.61a6.403 6.403 0 0 1-3.965 1.355 6.505 6.505 0 0 1-6.5-6.5c0-3.586 2.914-6.5 6.5-6.5a6.516 6.516 0 0 1 5.644 3.271c-1.279.109-2.524.845-3.142 1.95-.66 1.203-.758 2.665-.032 3.814z"/>
        <path fill="url(#b)" d="M32.5 21.667H39v2.167h-6.5z"/>
        <path fill="url(#c)" d="M32.5 8.667H39v2.167h-6.5z"/>
        <path fill="url(#d)" d="M56.13 40.94a1.682 1.682 0 0 0-1.477-.857h-2.71c-.473-4.333-4.276-8.595-8.61-9.53v-2.586c1.084-.448 2.167-1.64 2.167-3.05v-4.334c0-1.41-1.083-2.602-2.167-3.05v-2.567c1.084-.448 2.167-1.64 2.167-3.05V7.582c0-1.79-1.46-3.249-3.251-3.249h-1.082V3.251A3.256 3.256 0 0 0 37.916 0H7.583a3.255 3.255 0 0 0-3.25 3.251v1.082H3.25A3.255 3.255 0 0 0 0 7.584v4.334c0 1.41 1.083 2.602 2.167 3.05v2.567C1.083 17.982 0 19.173 0 20.583v4.334c0 1.41 1.083 2.602 2.167 3.05v2.567C1.083 30.98 0 32.173 0 33.584v4.333a3.254 3.254 0 0 0 3.25 3.25h1.083v1.083a3.254 3.254 0 0 0 3.25 3.25h23.66c1.676 4.333 5.59 6.499 9.924 6.499v-2.167c-5.417 0-8.667-3.888-8.667-8.666 0-4.779 3.888-8.667 8.667-8.667a8.619 8.619 0 0 1 8.59 7.583h-2.579c-.617 0-1.184.328-1.476.857a1.573 1.573 0 0 0 .042 1.619L48.96 47.7c.414.662 1.145 1.058 1.953 1.058.81 0 1.543-.396 1.958-1.06l3.219-5.141a1.576 1.576 0 0 0 .039-1.617zM41.167 28.167v2.166H4.333v-2.166h36.834zm0-13v2.166H4.333v-2.166h36.834zM6.5 3.25c0-.598.485-1.084 1.083-1.084h30.333c.598 0 1.084.486 1.084 1.084v1.082H6.5V3.251zm36.833 8.666c0 .598-.485 1.083-1.083 1.083h-39a1.084 1.084 0 0 1-1.083-1.083V7.583c0-.598.485-1.083 1.083-1.083h39c.598 0 1.083.485 1.083 1.083v4.334zm0 13c0 .598-.485 1.083-1.083 1.083h-39a1.084 1.084 0 0 1-1.083-1.083v-4.334c0-.598.485-1.083 1.083-1.083h39c.598 0 1.083.485 1.083 1.083v4.334zM7.583 43.333A1.084 1.084 0 0 1 6.5 42.25v-1.083h23.833c0 1.083.076 2.166.22 2.166H7.582zM30.551 39H3.25a1.084 1.084 0 0 1-1.083-1.083v-4.334c0-.598.486-1.083 1.083-1.083h31.444c-2.089 2.167-3.603 4.333-4.143 6.5zm20.483 7.55c-.029.045-.208.047-.238.002l-2.69-4.302h5.619l-2.691 4.3z"/>
        <path fill="url(#e)" d="M6.5 21.667h4.333v2.167H6.5zM13 21.667h4.333v2.167H13z"/>
        <path fill="url(#f)" d="M6.5 34.667h4.333v2.167H6.5zM13 34.667h4.333v2.167H13z"/>
        <path fill="url(#g)" d="M6.5 8.667h4.333v2.167H6.5zM13 8.667h4.333v2.167H13z"/>
    </g>
</svg>
