<?xml version="1.0" encoding="UTF-8"?>
<svg width="112px" height="112px" viewBox="0 0 112 112" version="1.1" xmlns="http://www.w3.org/2000/svg" xmlns:xlink="http://www.w3.org/1999/xlink">
    <!-- Generator: Sketch 51.2 (57519) - http://www.bohemiancoding.com/sketch -->
    <title>innovative-control-panel</title>
    <desc>Created with Sketch.</desc>
    <defs>
        <linearGradient x1="50%" y1="94.4449341%" x2="50%" y2="0%" id="linearGradient-1">
            <stop stop-color="#C822FF" offset="0%"></stop>
            <stop stop-color="#1A6DFF" offset="100%"></stop>
        </linearGradient>
    </defs>
    <g id="innovative-control-panel" stroke="none" stroke-width="1" fill="none" fill-rule="evenodd">
        <g id="SVG-Layer" fill="url(#linearGradient-1)" fill-rule="nonzero">
            <g id="surface1">
                <path d="M56,0 C25.1185354,0 0,25.1185354 0,56 C0,86.8814665 25.1185354,112 56,112 C86.8814665,112 112,86.8814665 112,56 C112,25.1185354 86.8814665,0 56,0 Z M56,3.86206897 C84.7467677,3.86206897 108.137931,27.2532323 108.137931,56 C108.137931,84.7467677 84.7467677,108.137931 56,108.137931 C27.2532323,108.137931 3.86206897,84.7467677 3.86206897,56 C3.86206897,27.2532323 27.2532323,3.86206897 56,3.86206897 Z M55.1551724,11.6012941 C43.7726298,11.8351288 32.7521561,16.4364229 24.5905172,24.5905172 C16.2025862,32.9859909 11.5862069,44.1346988 11.5862069,56 C11.5862069,67.8653012 16.2025862,79.0140091 24.5905172,87.4094828 C24.9676734,87.7790943 25.4655172,87.975216 25.9558185,87.975216 C26.4536643,87.975216 26.9515081,87.7790943 27.3286643,87.4094828 C28.0829746,86.6476298 28.0829746,85.4331906 27.3286643,84.6713357 C19.6648712,77.0150872 15.4482759,66.8318966 15.4482759,56 C15.4482759,45.1681034 19.6648712,34.9849148 27.3286643,27.3286643 C36.4935354,18.1562505 49.6185354,13.9094828 62.4493539,15.9612069 C63.512931,16.1346988 64.4859909,15.4105608 64.6594828,14.362069 C64.8329746,13.3060345 64.1088367,12.3178874 63.0603448,12.1443975 C60.4202596,11.7295263 57.7801724,11.5484919 55.1551724,11.6012941 Z M70.7920254,14.2640091 C70.037715,14.2941815 69.3437495,14.7693975 69.0646552,15.5161633 C68.687501,16.5193975 69.1928874,17.6282323 70.1961217,18.0053884 C71.5689655,18.5183194 72.9342668,19.1142251 74.2467677,19.7704737 C74.5258621,19.9137931 74.8275862,19.9816806 75.1217677,19.9816806 C75.8232759,19.9816806 76.5021561,19.5969837 76.8491379,18.9181034 C77.3243539,17.9676734 76.9396552,16.8060345 75.9892251,16.3232759 C74.5484919,15.5991379 73.0549564,14.950432 71.5463357,14.3846988 C71.3049564,14.2941815 71.0409492,14.2564665 70.7920254,14.2640091 Z M81.9407332,20.6153012 C81.450432,20.6756461 80.9827586,20.9170254 80.6508621,21.3394392 C79.9946116,22.1767241 80.137931,23.3911633 80.9827586,24.0474138 C82.2650872,25.0581906 83.5096988,26.1594828 84.6713357,27.3286643 C92.3351288,34.9849148 96.5517241,45.1681034 96.5517241,56 C96.5517241,66.8318966 92.3351288,77.0150872 84.6713357,84.6713357 C83.9170254,85.4331906 83.9170254,86.6476298 84.6713357,87.4094828 C85.0484919,87.7790943 85.5463357,87.975216 86.0441815,87.975216 C86.5344828,87.975216 87.0323286,87.7790943 87.4094828,87.4094828 C95.7974138,79.0140091 100.413793,67.8653012 100.413793,56 C100.413793,44.1346988 95.7974138,32.9859909 87.4094828,24.5905172 C86.1271561,23.3157332 84.7693975,22.1088367 83.3663793,21.0075426 C82.9439655,20.6831906 82.4310345,20.5549564 81.9407332,20.6153012 Z M67.3976298,27.0420254 C66.9827586,27.0797423 66.575432,27.2607768 66.2586207,27.562501 L33.5894392,58.4590527 C33.0161633,59.0021561 32.8351288,59.8394392 33.1293103,60.5786643 C33.4159492,61.3103448 34.125,61.7931034 34.9170254,61.7931034 L49.2564665,61.7931034 L40.8308185,82.3028022 C40.4913793,83.1325426 40.762931,84.0829746 41.4946116,84.6034483 C41.8340527,84.8448276 42.2262941,84.9655172 42.6185354,84.9655172 C43.0786643,84.9655172 43.5387931,84.7995699 43.9008621,84.4827586 L78.8028022,53.6088367 C79.3987079,53.0732759 79.6099148,52.2284483 79.3232759,51.4741379 C79.0441815,50.7273702 78.3275862,50.2295263 77.5204737,50.2295263 L62.7435354,50.2068966 L69.4267241,29.5614229 C69.6982759,28.7241379 69.3663793,27.8038803 68.612069,27.3362069 C68.2424574,27.0948276 67.812501,27.0043103 67.3976298,27.0420254 Z M63.4224138,35.5657332 L58.2553884,51.5420254 C58.0592668,52.1303884 58.1648712,52.7790943 58.5269401,53.2769401 C58.8890091,53.774784 59.4698276,54.0689655 60.088363,54.0689655 L72.4364229,54.0840527 L47.5592668,76.087285 L53.9256461,60.5937495 C54.1745699,59.9978458 54.0991379,59.3189655 53.737069,58.7834047 C53.3825426,58.2478458 52.7790943,57.9310345 52.137931,57.9310345 L39.7672414,57.9310345 L63.4224138,35.5657332 Z M37.4137931,87.6584047 C36.6594828,87.5678874 35.8976298,87.9148712 35.5053884,88.6088367 L33.5743539,91.9579746 C33.0387931,92.8782323 33.3556044,94.0549564 34.2758621,94.5905172 C34.5775862,94.7640091 34.9094828,94.8545263 35.2413793,94.8545263 C35.9051724,94.8545263 36.5538803,94.5075426 36.9084047,93.8890091 L38.8394392,90.5398712 C39.375,89.6196116 39.0657332,88.4353448 38.137931,87.899784 C37.9040943,87.7715517 37.662715,87.6885771 37.4137931,87.6584047 Z M74.5862069,87.6584047 C74.337285,87.6885771 74.088363,87.7715517 73.862069,87.899784 C72.9342668,88.4353448 72.625,89.6196116 73.1605608,90.5474138 L75.0915953,93.8890091 C75.4461217,94.5075426 76.0948276,94.8545263 76.7586207,94.8545263 C77.0905172,94.8545263 77.4224138,94.7715517 77.7241379,94.5905172 C78.6519401,94.062501 78.9612069,92.8782323 78.4256461,91.9579746 L76.4946116,88.6163793 C76.0948276,87.9224138 75.3329746,87.5678874 74.5862069,87.6584047 Z M45.9827586,91.4224138 C45.2435354,91.5280182 44.5948276,92.0635771 44.3836207,92.8405172 L43.387931,96.5743539 C43.1088367,97.600216 43.7273702,98.6562505 44.7532323,98.9353448 C44.9191815,98.9806044 45.0926734,99.0032323 45.2586207,99.0032323 C46.1109909,99.0032323 46.887931,98.4299564 47.1217677,97.5700436 L48.1174574,93.8362069 C48.3965517,92.8103448 47.7855608,91.7467677 46.7596988,91.475216 C46.4956897,91.399784 46.2316806,91.3846988 45.9827586,91.4224138 Z M66.0172414,91.4224138 C65.7683194,91.3846988 65.5043103,91.399784 65.2403012,91.475216 C64.2144392,91.7467677 63.6034483,92.8103448 63.875,93.8362069 L64.8782323,97.5700436 C65.112069,98.4299564 65.8890091,99.0032323 66.7413793,99.0032323 C66.9073286,99.0032323 67.0732759,98.9806044 67.2467677,98.9353448 C68.2726298,98.6562505 68.8836207,97.600216 68.612069,96.5743539 L67.6163793,92.8405172 C67.4051724,92.0635771 66.7564665,91.5280182 66.0172414,91.4224138 Z M56,92.6896552 C54.9364229,92.6896552 54.0689655,93.5571126 54.0689655,94.6206897 L54.0689655,98.4827586 C54.0689655,99.5463357 54.9364229,100.413793 56,100.413793 C57.0635771,100.413793 57.9310345,99.5463357 57.9310345,98.4827586 L57.9310345,94.6206897 C57.9310345,93.5571126 57.0635771,92.6896552 56,92.6896552 Z" id="Shape"></path>
            </g>
        </g>
    </g>
</svg>