<?xml version="1.0" encoding="UTF-8"?>
<svg width="112px" height="112px" viewBox="0 0 112 112" version="1.1" xmlns="http://www.w3.org/2000/svg" xmlns:xlink="http://www.w3.org/1999/xlink">
    <!-- Generator: Sketch 51.2 (57519) - http://www.bohemiancoding.com/sketch -->
    <title>instant-setup</title>
    <desc>Created with Sketch.</desc>
    <defs>
        <linearGradient x1="50%" y1="94.4449341%" x2="50%" y2="0%" id="linearGradient-1">
            <stop stop-color="#C822FF" offset="0%"></stop>
            <stop stop-color="#1A6DFF" offset="100%"></stop>
        </linearGradient>
    </defs>
    <g id="instant-setup" stroke="none" stroke-width="1" fill="none" fill-rule="evenodd">
        <g id="SVG-Layer" fill="url(#linearGradient-1)" fill-rule="nonzero">
            <g id="surface1">
                <path d="M56,0 C41.0420254,0 26.9816806,5.82327586 16.4062505,16.4062505 C5.82327586,26.9816806 0,41.0420254 0,56 C0,70.9579746 5.82327586,85.0183194 16.4062505,95.5937495 C26.9816806,106.176724 41.0420254,112 56,112 C70.9579746,112 85.0183194,106.176724 95.5937495,95.5937495 C106.176724,85.0183194 112,70.9579746 112,56 C112,41.0420254 106.176724,26.9816806 95.5937495,16.4062505 C85.0183194,5.82327586 70.9579746,0 56,0 Z M56,3.86206897 C69.9245699,3.86206897 83.0193975,9.28556083 92.8706897,19.1293103 C102.714439,28.9806044 108.137931,42.075432 108.137931,56 C108.137931,69.9245699 102.714439,83.0193975 92.8706897,92.8706897 C83.0193975,102.714439 69.9245699,108.137931 56,108.137931 C42.075432,108.137931 28.9806044,102.714439 19.1293103,92.8706897 C9.28556083,83.0193975 3.86206897,69.9245699 3.86206897,56 C3.86206897,42.075432 9.28556083,28.9806044 19.1293103,19.1293103 C28.9806044,9.28556083 42.075432,3.86206897 56,3.86206897 Z M56,11.5862069 C54.9364229,11.5862069 54.0689655,12.4536643 54.0689655,13.5172414 L54.0689655,21.2413793 C54.0689655,22.3049564 54.9364229,23.1724138 56,23.1724138 C57.0635771,23.1724138 57.9310345,22.3049564 57.9310345,21.2413793 L57.9310345,15.5387931 C68.0312505,16.0140091 77.475216,20.125 84.6713357,27.3286643 C92.3351288,34.9849148 96.5517241,45.1681034 96.5517241,56 C96.5517241,66.8318966 92.3351288,77.0150872 84.6713357,84.6713357 C77.0150872,92.3351288 66.8318966,96.5517241 56,96.5517241 C45.1681034,96.5517241 34.9849148,92.3351288 27.3286643,84.6713357 C17.6734919,75.0237079 13.5398712,61.0312505 16.2931034,47.725216 L19.7403012,48.7887931 C20.7586207,49.0905172 21.8448276,48.524784 22.1540943,47.5064665 C22.4709057,46.488147 21.8976298,45.4094828 20.8793103,45.0926734 L15.4558185,43.4256461 C14.950432,43.274784 14.4073286,43.3275862 13.9471978,43.5840527 C13.487069,43.8405172 13.1476298,44.2780182 13.0193975,44.7834047 C9.06681131,59.9827586 13.5096988,76.3135771 24.5980599,87.4094828 C32.9859909,95.7898712 44.1346988,100.413793 56,100.413793 C67.8653012,100.413793 79.0140091,95.7974138 87.4094828,87.4094828 C95.7974138,79.0140091 100.413793,67.8653012 100.413793,56 C100.413793,44.1346988 95.7974138,32.9859909 87.4094828,24.5905172 C79.0140091,16.2025862 67.8653012,11.5862069 56,11.5862069 Z M48.1325426,16.5948276 C47.8836207,16.5646552 47.6271561,16.5721978 47.3706897,16.6476298 C46.337285,16.9191815 45.7262941,17.9827586 46.0053884,19.0086207 L47.0086207,22.7424574 C47.2349148,23.6023702 48.011853,24.1756461 48.8717677,24.1756461 C49.0301724,24.1756461 49.1961217,24.1530182 49.362069,24.1077586 C50.3954737,23.8286643 51.0064665,22.7726298 50.7273702,21.7467677 L49.7316806,18.012931 C49.5280182,17.2359909 48.8793103,16.700432 48.1325426,16.5948276 Z M37.6174574,20.7359909 C37.3685354,20.7737079 37.1196116,20.8491379 36.8933194,20.9849148 C35.9655172,21.5204737 35.6487079,22.7047423 36.1767241,23.625 L38.1077586,26.9741379 C38.4698276,27.5926734 39.1185354,27.9396552 39.7898712,27.9396552 C40.1142251,27.9396552 40.4461217,27.8491379 40.7553884,27.6756461 C41.6756461,27.1400872 41.9924574,25.963363 41.4568966,25.0431034 L39.5258621,21.6939655 C39.1260781,21 38.3566806,20.6454737 37.6174574,20.7359909 Z M56,27.0344828 C54.9364229,27.0344828 54.0689655,27.9019401 54.0689655,28.9655172 L54.0689655,36.6896552 C54.0689655,37.7532323 54.9364229,38.6206897 56,38.6206897 C57.0635771,38.6206897 57.9310345,37.7532323 57.9310345,36.6896552 L57.9310345,28.9655172 C57.9310345,27.9019401 57.0635771,27.0344828 56,27.0344828 Z M29.2596988,27.3286643 C28.761853,27.3286643 28.2715517,27.5096988 27.886853,27.886853 C27.1325426,28.6487079 27.1325426,29.863147 27.886853,30.625 L30.625,33.3480599 C30.9946116,33.725216 31.4924574,33.9137931 31.9827586,33.9137931 C32.4806044,33.9137931 32.9784483,33.725216 33.3480599,33.3480599 C34.1099148,32.5937495 34.1099148,31.3793103 33.3480599,30.625 L30.625,27.886853 C30.2403012,27.5096988 29.75,27.3286643 29.2596988,27.3286643 Z M22.9008621,35.9353448 C22.1465517,35.8448276 21.3846988,36.1993539 20.9849148,36.8933194 C20.4493539,37.8135771 20.7661633,38.9978458 21.6939655,39.5258621 L25.0431034,41.4568966 C25.3448276,41.637931 25.6767241,41.7209057 26.0010781,41.7209057 C26.6724138,41.7209057 27.3211217,41.3739219 27.6756461,40.7553884 C28.2112069,39.8275862 27.8943975,38.6508621 26.9741379,38.1153012 L23.625,36.1842668 C23.3911633,36.0484919 23.149784,35.9730599 22.9008621,35.9353448 Z M26.762931,46.3674574 C26.0237079,46.4655172 25.375,47.0086207 25.1637931,47.7780182 C24.8922414,48.8114229 25.5107768,49.8674574 26.5366389,50.1465517 L50.2521561,56.4601288 C50.4935354,59.4396552 52.9676734,61.7931034 56,61.7931034 C59.1907332,61.7931034 61.7931034,59.1907332 61.7931034,56 C61.7931034,52.8092668 59.1907332,50.2068966 56,50.2068966 C54.0161633,50.2068966 52.2661633,51.2101288 51.225216,52.7338367 L27.5323286,46.4051724 C27.2758621,46.337285 27.011853,46.3297423 26.762931,46.3674574 Z M57.9008621,55.8717677 C57.9084047,55.9170254 57.9310345,55.9547423 57.9310345,56 C57.9310345,56.0905172 57.8933194,56.1584047 57.8782323,56.2413793 C57.9008621,56.1206897 57.9159492,55.9924574 57.9008621,55.8717677 Z" id="Shape"></path>
            </g>
        </g>
    </g>
</svg>