<?xml version="1.0" encoding="UTF-8"?>
<svg width="112px" height="112px" viewBox="0 0 112 112" version="1.1" xmlns="http://www.w3.org/2000/svg" xmlns:xlink="http://www.w3.org/1999/xlink">
    <!-- Generator: Sketch 51.2 (57519) - http://www.bohemiancoding.com/sketch -->
    <title>integrated-caching</title>
    <desc>Created with Sketch.</desc>
    <defs>
        <linearGradient x1="50%" y1="94.4449341%" x2="50%" y2="0%" id="linearGradient-1">
            <stop stop-color="#C822FF" offset="0%"></stop>
            <stop stop-color="#1A6DFF" offset="100%"></stop>
        </linearGradient>
    </defs>
    <g id="integrated-caching" stroke="none" stroke-width="1" fill="none" fill-rule="evenodd">
        <g id="SVG-Layer" fill="url(#linearGradient-1)" fill-rule="nonzero">
            <g id="surface1">
                <path d="M56,0 C25.1209677,0 0,25.1209677 0,56 C0,86.8790323 25.1209677,112 56,112 C86.8790323,112 112,86.8790323 112,56 C112,25.1209677 86.8790323,0 56,0 Z M56,3.61290323 C69.7953634,3.61290323 82.3558472,8.98286245 91.719759,17.7258065 L62.4002021,47.0453634 C62.3931461,47.0524194 62.3860883,47.0524194 62.3790323,47.0524194 C62.3790323,47.0594754 62.3790323,47.0665332 62.3719763,47.0735892 L56.9243956,52.5211698 C56.6280237,52.4435484 56.3245977,52.3870968 56,52.3870968 C54.0100815,52.3870968 52.3870968,54.0100815 52.3870968,56 C52.3870968,57.9899203 54.0100815,59.6129032 56,59.6129032 C57.9899203,59.6129032 59.6129032,57.9899203 59.6129032,56 C59.6129032,55.6754041 59.5564516,55.3719763 59.4788302,55.0756044 L63.5362903,51.0252021 C64.5030237,52.485888 65.0322581,54.2006044 65.0322581,56 C65.0322581,60.9818557 60.9818557,65.0322581 56,65.0322581 C51.0181461,65.0322581 46.9677419,60.9818557 46.9677419,56 C46.9677419,51.0181461 51.0181461,46.9677419 56,46.9677419 C56.3175399,46.9677419 56.6350815,46.9818557 56.9385076,47.0171375 C57.9334686,47.108871 58.8225806,46.3961698 58.9284279,45.4082666 C59.0272173,44.4133074 58.3074601,43.5241935 57.3195569,43.4183463 C56.882056,43.3760085 56.4445569,43.3548387 56,43.3548387 C49.0282258,43.3548387 43.3548387,49.0282258 43.3548387,56 C43.3548387,62.9717742 49.0282258,68.6451613 56,68.6451613 C62.9717742,68.6451613 68.6451613,62.9717742 68.6451613,56 C68.6451613,53.233871 67.7489915,50.608871 66.1189525,48.4354839 L73.8104839,40.7368947 C77.4657267,44.9989915 79.483871,50.3477827 79.483871,56 C79.483871,68.9556452 68.9556452,79.483871 56,79.483871 C43.0443548,79.483871 32.516129,68.9556452 32.516129,56 C32.516129,50.7217742 34.266129,45.8457657 37.2298387,41.9082666 C38.4435484,42.8114924 39.9395161,43.3548387 41.5483871,43.3548387 C45.5423396,43.3548387 48.7741935,40.1229848 48.7741935,36.1290323 C48.7741935,35.3175399 48.6260085,34.5413311 48.3790323,33.8004041 C50.7782258,32.9677419 53.3467742,32.516129 56,32.516129 C59.8669355,32.516129 63.6985892,33.4758065 67.0715721,35.2822581 C67.9606859,35.7479848 69.0403226,35.4233871 69.5131053,34.5413311 C70,33.6733871 69.6542343,32.5725806 68.7862903,32.0997979 C64.8699592,30.0040323 60.4596774,28.9032258 56,28.9032258 C52.5846774,28.9032258 49.3175399,29.5383074 46.3185484,30.7096774 C45.0342751,29.5877012 43.3760085,28.9032258 41.5483871,28.9032258 C37.5544364,28.9032258 34.3225806,32.1350815 34.3225806,36.1290323 C34.3225806,37.1592751 34.5413311,38.1189525 34.9364924,39.0010085 C31.1612903,43.6441528 28.9032258,49.5504041 28.9032258,56 C28.9032258,70.9385076 41.0614924,83.0967742 56,83.0967742 C70.9385076,83.0967742 83.0967742,70.9385076 83.0967742,56 C83.0967742,49.3810493 80.7046366,43.1219763 76.3719763,38.1824601 L84.0352818,30.5120968 C90.4143141,37.5120968 93.9354839,46.4737912 93.9354839,56 C89.9415332,56 86.7096774,59.2318557 86.7096774,63.2258065 C86.7096774,66.2600815 88.5866945,68.8639117 91.2610883,69.9294364 C89.2217742,75.1300408 86.0252021,79.8790323 81.8689525,83.7459677 C81.1491935,84.4304431 81.0927419,85.5735892 81.7772173,86.2933463 C82.1370968,86.6743956 82.6239915,86.8719763 83.0967742,86.8719763 C83.5483871,86.8719763 83.9788302,86.7096774 84.3387097,86.3850815 C89.108871,81.9395161 92.7288302,76.4143141 94.9516129,70.3810493 C98.4727827,69.8941528 101.16129,66.8739915 101.16129,63.2258065 C101.16129,60.5514108 99.7006044,58.2016129 97.5272173,56.9596774 C97.5483871,56.6280237 97.5483871,56.3245977 97.5483871,56 C97.5483871,45.5 93.6461698,35.6350815 86.5897182,27.9647182 L94.2741935,20.2872988 C103.017138,29.6512106 108.387097,42.2046366 108.387097,56 C108.387097,84.8891138 84.882056,108.387097 56,108.387097 C27.117944,108.387097 3.61290323,84.8891138 3.61290323,56 C3.61290323,27.110888 27.117944,3.61290323 56,3.61290323 Z M56,14.4516129 C33.094759,14.4516129 14.4516129,33.094759 14.4516129,56 C14.4516129,60.4243956 15.1713719,64.8135076 16.5473786,68.969759 C15.2631053,70.2893141 14.4516129,72.0745977 14.4516129,74.0645161 C14.4516129,78.0584686 17.6834686,81.2903226 21.6774194,81.2903226 C22.1078625,81.2903226 22.5453634,81.2550408 22.9616945,81.1633074 C24.4082666,83.0967742 26.0665332,84.9173396 27.8729848,86.5826622 C28.2187505,86.9072581 28.6703634,87.0695569 29.1008065,87.0695569 C29.5877012,87.0695569 30.0745977,86.8719763 30.4344754,86.476815 C31.1048387,85.75 31.0483871,84.5997979 30.3286299,83.9294364 C28.867944,82.5957657 27.5342751,81.1491935 26.3205654,79.610888 C27.9082666,78.2772173 28.9032258,76.2872988 28.9032258,74.0645161 C28.9032258,70.0705654 25.6713719,66.8387097 21.6774194,66.8387097 C21.007056,66.8387097 20.3578625,66.9304431 19.7439525,67.1139117 C18.6431461,63.5362903 18.0645161,59.7963719 18.0645161,56 C18.0645161,35.0846774 35.0846774,18.0645161 56,18.0645161 C58.9072581,18.0645161 61.8004041,18.3891138 64.5806452,19.0383074 C65.5756044,19.2711698 66.5352818,18.6572581 66.7681461,17.6834686 C66.9868947,16.7096774 66.3729848,15.75 65.4133074,15.5171375 C62.3437505,14.8114924 59.1824601,14.4516129 56,14.4516129 Z M72.3215721,17.9375009 C71.6229848,17.9163311 70.9385076,18.3185484 70.6350815,18.9959677 C70.2258065,19.9062495 70.6350815,20.9717742 71.5453634,21.3881053 C73.1118947,22.0866945 74.6431461,22.9122988 76.1038302,23.8225806 C76.4002021,24.0131053 76.7318557,24.1048387 77.0564516,24.1048387 C77.6633074,24.1048387 78.2489915,23.8014108 78.594759,23.2580645 C79.1239915,22.4112903 78.8699592,21.2963719 78.023185,20.7671375 C76.4213719,19.7580645 74.7419355,18.8618947 73.0201613,18.0927419 C72.7943548,17.9868947 72.5614924,17.9375009 72.3215721,17.9375009 Z M41.5483871,32.516129 C41.8165332,32.516129 42.0917334,32.5514108 42.3387097,32.6078625 C43.6582666,32.9183463 44.7096774,33.9274194 45.0483871,35.2469763 C45.1260085,35.5151205 45.1612903,35.8185484 45.1612903,36.1290323 C45.1612903,38.1189525 43.5383074,39.7419355 41.5483871,39.7419355 C40.8427419,39.7419355 40.1723786,39.5443548 39.6149203,39.1774194 C38.6058472,38.5282258 37.9354839,37.4133074 37.9354839,36.1290323 C37.9354839,36.023185 37.9354839,35.9102818 37.9566537,35.8044364 C38.1189525,33.9627012 39.6713719,32.516129 41.5483871,32.516129 Z M93.759073,59.6129032 L93.9354839,59.6129032 C95.3256044,59.6129032 96.5534279,60.4102818 97.1532258,61.5816537 C97.4002021,62.0685484 97.5483871,62.6330645 97.5483871,63.2258065 C97.5483871,64.2913311 97.0826622,65.2651205 96.3205654,65.9143141 C95.6854839,66.492944 94.8598795,66.8387097 93.9354839,66.8387097 C93.3921375,66.8387097 92.891129,66.7116945 92.4183463,66.5 C91.1905246,65.9354839 90.3225806,64.6723786 90.3225806,63.2258065 C90.3225806,61.2923396 91.8397182,59.7187505 93.759073,59.6129032 Z M21.6774194,70.4516129 C23.6673396,70.4516129 25.2903226,72.0745977 25.2903226,74.0645161 C25.2903226,75.0735892 24.8739915,75.9979848 24.1895161,76.6471783 C23.5403226,77.2963719 22.6512106,77.6774194 21.6774194,77.6774194 C21.2469763,77.6774194 20.8094754,77.6068557 20.4354839,77.4445569 C19.0594754,76.9364924 18.0645161,75.6169355 18.0645161,74.0645161 C18.0645161,73.7540323 18.0997979,73.4506044 18.1774194,73.1824601 C18.516129,71.8276214 19.6169355,70.7903226 20.992944,70.5221783 C21.2046366,70.4657267 21.4445569,70.4516129 21.6774194,70.4516129 Z M38.6129032,85.615927 C37.9072581,85.5312495 37.1945569,85.8558472 36.8276214,86.5050408 L35.0211698,89.6381053 C34.5201613,90.4989915 34.8165332,91.5997979 35.6774194,92.1008065 C35.9596774,92.2631053 36.2701613,92.3477827 36.5806452,92.3477827 C37.2016129,92.3477827 37.8084686,92.023185 38.1401205,91.4445569 L39.9465721,88.3114924 C40.4475806,87.4506044 40.1582666,86.3427419 39.2903226,85.8417334 C39.0715721,85.7217742 38.8457657,85.6441528 38.6129032,85.615927 Z M73.3870968,85.615927 C73.1542343,85.6441528 72.9213719,85.7217742 72.7096774,85.8417334 C71.8417334,86.3427419 71.5524194,87.4506044 72.0534279,88.3185484 L73.8598795,91.4445569 C74.1915332,92.023185 74.7983871,92.3477827 75.4193548,92.3477827 C75.7298387,92.3477827 76.0403226,92.2701613 76.3225806,92.1008065 C77.1905246,91.6068557 77.4798387,90.4989915 76.9788302,89.6381053 L75.1723786,86.5120968 C74.7983871,85.8629032 74.0856859,85.5312495 73.3870968,85.615927 Z M46.6360883,89.1370968 C45.9375009,89.235888 45.3306452,89.7368947 45.1330645,90.4637097 L44.2016129,93.9566537 C43.9405246,94.9163311 44.5191528,95.9042343 45.4788302,96.1653226 C45.634073,96.2076622 45.7893141,96.2288302 45.9516129,96.2288302 C46.7419355,96.2288302 47.4758065,95.6925399 47.6945569,94.8881053 L48.6330645,91.3951613 C48.8870968,90.4354839 48.3155246,89.4405246 47.3558472,89.1864924 C47.108871,89.115927 46.8689525,89.101815 46.6360883,89.1370968 Z M65.3709677,89.1370968 C65.1381053,89.101815 64.891129,89.115927 64.6441528,89.1864924 C63.6844754,89.4405246 63.1129032,90.4354839 63.3669355,91.3951613 L64.3054431,94.8881053 C64.5241935,95.6925399 65.2510085,96.2288302 66.0483871,96.2288302 C66.2106859,96.2288302 66.365927,96.2076622 66.5211698,96.1653226 C67.4808472,95.9042343 68.0594754,94.9163311 67.7983871,93.9566537 L66.8669355,90.4637097 C66.6693548,89.7368947 66.0625009,89.235888 65.3709677,89.1370968 Z M56,90.3225806 C54.9979848,90.3225806 54.1935484,91.134073 54.1935484,92.1290323 L54.1935484,95.7419355 C54.1935484,96.7368947 54.9979848,97.5483871 56,97.5483871 C57.002017,97.5483871 57.8064516,96.7368947 57.8064516,95.7419355 L57.8064516,92.1290323 C57.8064516,91.134073 57.002017,90.3225806 56,90.3225806 Z" id="Shape"></path>
            </g>
        </g>
    </g>
</svg>