<?xml version="1.0" encoding="UTF-8"?>
<svg width="112px" height="112px" viewBox="0 0 112 112" version="1.1" xmlns="http://www.w3.org/2000/svg" xmlns:xlink="http://www.w3.org/1999/xlink">
    <!-- Generator: Sketch 51.2 (57519) - http://www.bohemiancoding.com/sketch -->
    <title>latest-technologies</title>
    <desc>Created with Sketch.</desc>
    <defs>
        <linearGradient x1="50%" y1="94.4449341%" x2="50%" y2="0%" id="linearGradient-1">
            <stop stop-color="#C822FF" offset="0%"></stop>
            <stop stop-color="#1A6DFF" offset="100%"></stop>
        </linearGradient>
    </defs>
    <g id="latest-technologies" stroke="none" stroke-width="1" fill="none" fill-rule="evenodd">
        <g id="SVG-Layer" fill="url(#linearGradient-1)" fill-rule="nonzero">
            <g id="surface1">
                <path d="M56,0 C49.7241379,0 43.5689655,1.03340469 37.6853448,3.06250097 C36.6821126,3.40948276 36.1465517,4.51077683 36.5010781,5.52155172 C36.8480599,6.524784 37.9493539,7.06034483 38.9525862,6.71336303 C44.4213357,4.82004359 50.1540943,3.86206897 56,3.86206897 C84.7467677,3.86206897 108.137931,27.2532323 108.137931,56 C108.137931,83.3588367 86.7758621,106.214439 59.5,108.017241 C58.4364229,108.092673 57.636853,109.012931 57.712285,110.076508 C57.7726298,111.094828 58.625,111.87931 59.6282323,111.87931 C59.6734919,111.87931 59.7187495,111.87931 59.7640091,111.87931 C89.0538803,109.933191 112,85.387931 112,56 C112,25.1185354 86.8814665,0 56,0 Z M28.7241379,7.25646648 C28.4827586,7.2866389 28.2338367,7.36961159 28,7.49784579 C27.0721978,8.03340469 26.762931,9.21767338 27.2984919,10.137931 L29.2295263,13.487069 C29.5840527,14.1056044 30.2327586,14.4525862 30.8965517,14.4525862 C31.2284483,14.4525862 31.5603448,14.3696116 31.862069,14.1961217 C32.7898712,13.6605608 33.0991379,12.4762941 32.5635771,11.5560345 L30.6325426,8.20689655 C30.2403012,7.52047366 29.4784483,7.16594924 28.7241379,7.25646648 Z M57.0258621,11.5937495 C50.9838367,11.450432 44.9568966,12.5441815 39.337285,14.8146552 C38.3415953,15.2144392 37.8739219,16.3459057 38.2661633,17.3340527 C38.575432,18.088363 39.2920254,18.5409492 40.0614229,18.5409492 C40.3028022,18.5409492 40.5441815,18.4956897 40.7855608,18.4051724 C47.6271561,15.6293103 55.125,14.7844828 62.4493539,15.9612069 C63.5053884,16.1346988 64.4935354,15.4105608 64.6594828,14.362069 C64.825432,13.3060345 64.1088367,12.3103448 63.0603448,12.1443975 C61.0538803,11.8200436 59.0323286,11.6390091 57.0258621,11.5937495 Z M19.9213357,13.8943975 C19.4310345,13.8642251 18.9256461,14.0301724 18.5258621,14.3846988 C17.7338367,15.1012941 17.6734919,16.3232759 18.3825426,17.1077586 L20.9698276,19.9816806 C21.3469837,20.4040943 21.875,20.6153012 22.4105608,20.6153012 C22.863147,20.6153012 23.3308185,20.4568966 23.6928874,20.125 C24.4924574,19.4084047 24.5528022,18.1864229 23.8362069,17.4019401 L21.2564665,14.5280182 C20.9019401,14.1282323 20.4116389,13.9170254 19.9213357,13.8943975 Z M70.7920254,14.2640091 C70.037715,14.2941815 69.3437495,14.7693975 69.0646552,15.5161633 C68.6950436,16.5193975 69.200432,17.6282323 70.1961217,18.0053884 C71.5689655,18.5183194 72.9342668,19.1066806 74.2467677,19.7704737 C74.5258621,19.9137931 74.8275862,19.9816806 75.1217677,19.9816806 C75.8232759,19.9816806 76.5021561,19.5969837 76.8491379,18.9181034 C77.3243539,17.9676734 76.9396552,16.8060345 75.9892251,16.3232759 C74.5484919,15.5991379 73.0549564,14.950432 71.5463357,14.3846988 C71.2974138,14.2941815 71.0409492,14.2564665 70.7920254,14.2640091 Z M11.9558185,22.312501 C11.4655172,22.387931 11.012931,22.6519401 10.6961217,23.0818966 C10.0700436,23.9418113 10.2586207,25.1562505 11.1185354,25.7823286 L14.2489219,28.0528022 C14.588363,28.3017241 14.988147,28.4224138 15.3803884,28.4224138 C15.9762941,28.4224138 16.5646552,28.1433194 16.9493539,27.6303884 C17.575432,26.762931 17.3793103,25.5560345 16.5193975,24.9224138 L13.3965517,22.6594828 C12.9590527,22.3426734 12.4461217,22.237069 11.9558185,22.312501 Z M6.63793103,32.0732759 C5.89116331,32.0657332 5.16702538,32.4956897 4.84267338,33.2198276 C4.41271503,34.200432 4.84267338,35.3394392 5.82327586,35.7769401 L9.35344828,37.3459057 C9.60237021,37.4590527 9.86637931,37.511853 10.1303884,37.511853 C10.8696116,37.511853 11.5786643,37.0818966 11.8954737,36.3577586 C12.3329746,35.3846988 11.8954737,34.2456897 10.9224138,33.8157332 L7.39224138,32.2467677 C7.14331945,32.1336207 6.89439752,32.0808185 6.63793103,32.0732759 Z M79.1724138,38.6206897 C78.6821126,38.6206897 78.1842668,38.8092668 77.8071126,39.1864229 L50.2068966,66.7866389 L36.1239219,52.7036643 C35.3696116,51.9493539 34.1476298,51.9493539 33.3933194,52.7036643 C32.6390091,53.4579746 32.6390091,54.6799564 33.3933194,55.4342668 L48.8415953,70.8825426 C49.2187495,71.2596988 49.7090527,71.4482759 50.2068966,71.4482759 C50.7047423,71.4482759 51.1950436,71.2596988 51.5721978,70.8825426 L80.537715,41.9170254 C81.2920254,41.162715 81.2920254,39.9407332 80.537715,39.1864229 C80.1605608,38.8092668 79.662715,38.6206897 79.1724138,38.6206897 Z M2.74568966,42.8599148 C2.00646648,43.0032323 1.38793103,43.5765081 1.22198372,44.3609909 C1.00323228,45.4019401 1.66702538,46.4278022 2.71551724,46.6465517 L6.48706897,47.4536643 C6.62284579,47.4762941 6.75862069,47.4913793 6.89439752,47.4913793 C7.78448276,47.4913793 8.58405269,46.8728458 8.78017241,45.9601288 C8.99892193,44.9191815 8.33512883,43.8933194 7.2866389,43.6745699 L3.51508717,42.875 C3.25107807,42.8146552 2.99461159,42.8146552 2.74568966,42.8599148 Z M1.93103448,54.0689655 C0.867457379,54.0689655 0,54.9364229 0,56 C0,57.0635771 0.867457379,57.9310345 1.93103448,57.9310345 L5.79310345,57.9310345 C6.85668055,57.9310345 7.72413793,57.0635771 7.72413793,56 C7.72413793,54.9364229 6.85668055,54.0689655 5.79310345,54.0689655 L1.93103448,54.0689655 Z M7.25646648,64.5387931 C7.00754262,64.4935354 6.74353545,64.4935354 6.48706897,64.5463357 L2.70797462,65.3534483 C1.66702538,65.5721978 1.00323228,66.5980599 1.22198372,67.6465517 C1.41810345,68.5517241 2.21767338,69.1702596 3.10775862,69.1702596 C3.24353545,69.1702596 3.37176772,69.1551724 3.50754262,69.125 L7.2866389,68.325432 C8.33512883,68.1066806 8.99892193,67.0808185 8.78017241,66.0398712 C8.6142251,65.2553884 7.98814703,64.6821126 7.25646648,64.5387931 Z M10.100216,74.488147 C9.85129407,74.4956897 9.59482759,74.5484919 9.35344828,74.6540943 L5.82327586,76.2230599 C4.850216,76.6605608 4.41271503,77.7995699 4.84267338,78.7801724 C5.15948276,79.4967677 5.86853545,79.9267241 6.60775862,79.9267241 C6.87176772,79.9267241 7.13577683,79.8663793 7.39224138,79.7532323 L10.9224138,78.1842668 C11.8954737,77.7543103 12.3329746,76.6077586 11.9030182,75.6346988 C11.5711217,74.9030182 10.8545263,74.4730599 10.100216,74.488147 Z M15.6821126,83.6077586 C15.1918113,83.524784 14.6788803,83.6303884 14.2413793,83.9471978 L11.1185354,86.2176734 C10.2586207,86.8437495 10.0700436,88.0581906 10.6961217,88.9181034 C11.0732759,89.4385771 11.6616389,89.7101288 12.2650872,89.7101288 C12.6573286,89.7101288 13.0495699,89.5969837 13.3965517,89.3405172 L16.5193975,87.0775862 C17.3793103,86.4439655 17.575432,85.237069 16.9493539,84.3696116 C16.6325426,83.9396552 16.1724138,83.6831906 15.6821126,83.6077586 Z M22.2974138,91.3846988 C21.8071126,91.4073286 21.3243539,91.6260781 20.9698276,92.0183194 L18.3825426,94.8922414 C17.6734919,95.6767241 17.7413793,96.8987079 18.5258621,97.6153012 C18.8954737,97.9471978 19.363147,98.113147 19.8232759,98.113147 C20.3512941,98.113147 20.8717677,97.8943975 21.2564665,97.4719837 L23.8362069,94.5980599 C24.5528022,93.8135771 24.4849148,92.5915953 23.6928874,91.875 C23.3006461,91.5204737 22.7952596,91.362069 22.2974138,91.3846988 Z M31.137931,97.562501 C30.3836207,97.4719837 29.6217677,97.8189655 29.2295263,98.512931 L27.2984919,101.862069 C26.762931,102.782329 27.0797423,103.959053 28,104.494612 C28.3017241,104.668103 28.6336207,104.758621 28.9655172,104.758621 C29.6293103,104.758621 30.2780182,104.411639 30.6325426,103.793103 L32.5635771,100.443966 C33.0991379,99.5237079 32.7898712,98.3394392 31.862069,97.8114229 C31.6282323,97.6756461 31.386853,97.5926734 31.137931,97.562501 Z M40.3178874,101.824354 C39.5635771,101.892241 38.8922414,102.390087 38.6508621,103.15194 L37.4515081,106.825432 C37.1271561,107.836207 37.6778022,108.929956 38.6885771,109.25431 C38.8922414,109.322198 39.0959057,109.35237 39.2920254,109.35237 C40.1066806,109.35237 40.8609909,108.831897 41.125,108.017241 L42.3243539,104.34375 C42.6487079,103.332975 42.0905172,102.239225 41.0797423,101.914871 C40.8232759,101.831897 40.5668113,101.801724 40.3178874,101.824354 Z M50.9536643,104.011853 C49.875,103.90625 48.9396552,104.668103 48.8265081,105.731681 L48.4267241,109.571122 C48.3135771,110.634699 49.0829746,111.585129 50.1465517,111.698276 C50.2144392,111.698276 50.2823286,111.698276 50.350216,111.698276 C51.3232759,111.698276 52.1605608,110.966595 52.2661633,109.970906 L52.6734919,106.131466 C52.7866389,105.075432 52.0172414,104.125 50.9536643,104.011853 Z" id="Shape"></path>
            </g>
        </g>
    </g>
</svg>