<svg height="112" viewBox="0 0 112 112" width="112" xmlns="http://www.w3.org/2000/svg" xmlns:xlink="http://www.w3.org/1999/xlink"><linearGradient id="a" x1="50%" x2="50%" y1="94.444934%" y2="0%"><stop offset="0" stop-color="#c822ff"/><stop offset="1" stop-color="#1a6dff"/></linearGradient><path d="m56 0c-21.4299564 0-40.0840508 12.1066806-49.49784386 29.8405172-.03017242.0603449-.06788938.1282323-.09051724.1961217-4.08836304 7.7693956-6.4116389 16.5948276-6.4116389 25.9633611 0 24.2887931 15.5463357 45.009699 37.2101288 52.748922.075432.030172.1508621.052802.2262941.075432 5.8157332 2.051724 12.0614229 3.175646 18.5635771 3.175646 30.8739219 0 56-25.1260781 56-56 0-11.5937495-3.545258-22.3728439-9.60237-31.3189655-.14332-.3017242-.294182-.5808185-.467674-.8523702-.346981-.5506461-.769395-1.0484919-1.221981-1.5086207-10.2359913-13.54741381-26.4612073-22.3200436-44.707975-22.3200436zm0 3.86206897c14.4450436 0 27.524784 5.90625048 36.9838367 15.41810343-.6864229.0075426-1.3803884.0528022-2.0818966.1734919-4.925646.8523702-8.6670253 4.4655172-9.775862 9.4137931-1.2144392 5.4159473.9428874 9.6325426 3.024784 13.7058185 2.1422413 4.1713357 4.1713357 8.1239219 2.6023702 13.2834047l-7.1282323 18.2769401-15.0258621-39.375h2.987069c1.0711217 0 1.9310345-.8599128 1.9310345-1.9310345 0-1.0711197-.8599128-1.9310345-1.9310345-1.9310345h-27.0344828c-1.0711197 0-1.9310344.8599148-1.9310344 1.9310345 0 1.0711217.8599147 1.9310345 1.9310344 1.9310345h3.824354l6.9547404 17.8394392-8.3954737 21.5355608-15.025862-39.375h4.9181034c1.0711217 0 1.9310345-.8599128 1.9310345-1.9310345 0-1.0711197-.8599128-1.9310345-1.9310345-1.9310345h-22.5010781v-.0075426c8.8857769-16.0969837 26.0237079-27.02694013 45.6734919-27.02694013zm.0226298 5.79310344c-1.0711217 0-1.9310345.85991479-1.9310345 1.93103449v3.862069c0 1.0711216.8599128 1.9310344 1.9310345 1.9310344 1.0711197 0 1.9310345-.8599128 1.9310345-1.9310344v-3.862069c0-1.0711197-.8599148-1.93103449-1.9310345-1.93103449zm-10.4773702 1.43319059c-.2489239-.0377169-.512931-.0226298-.7693975.0452577-1.0258621.2790943-1.6443956 1.3351288-1.3653013 2.3609909l1.0032323 3.7338367c.2262941.8674574 1.0107768 1.4331906 1.863147 1.4331906.1659473 0 .3318966-.0226298.4978439-.0678894 1.0334066-.2715517 1.6443975-1.3351288 1.3728458-2.3609909l-1.0107768-3.7338367c-.2036624-.7769382-.8448276-1.312499-1.5915934-1.4105589zm20.962283 0c-.7467658.1056025-1.3954736.6336207-1.6066805 1.4105589l-.9956897 3.7338367c-.2790943 1.0258621.3394392 2.0894392 1.3653013 2.3609909.1659492.0452596.3318965.0678894.5053884.0678894.8448276 0 1.6293103-.5657332 1.863147-1.4331906l.9956897-3.7338367c.2790943-1.0258621-.3394392-2.0818966-1.3653013-2.3609909-.2564665-.0678875-.512931-.0829746-.7618549-.0452577zm-31.4849128 4.148706c-.2489219.0301724-.4978458.1056044-.7241379.2413793-.9278022.5355608-1.237069 1.7122849-.7090527 2.6325426l1.9310345 3.3415953c.3620689.6260781 1.0107768.9655172 1.6821125.9655172.3243539 0 .6562505-.07543.9579746-.2489219.9278022-.5355608 1.2446116-1.7198276.7090508-2.6476298l-1.9310345-3.3415953c-.399784-.686421-1.1691796-1.0409473-1.9159473-.9428874zm42 0c-.7467677-.0980599-1.5161633.2564664-1.9159492.950432l-1.9310345 3.3415933c-.5280163.9202596-.2187495 2.1045264.7090527 2.6400872.3017241.1734919.6336206.2564646.9655172.2564646.6713357 0 1.3200436-.3469818 1.674568-.9655173l1.9310345-3.3415934c.5355608-.9278022.2112069-2.1045263-.7090508-2.6400871-.2338367-.1357749-.475216-.2112069-.7241379-.2413793zm16.3383611 7.8976298c1.7424574.0678874 3.3189655.6788783 4.4353448 1.7349128.399786.5280182.7769402 1.0711216 1.1465517 1.6142251 2.8739236 6.162715-2.7683175 24.0096987-7.2112068 34.2306025l-16.5420254 42.4450438-16.549568-42.4450438c-.0075446-.0075426-.0150872-.0150853-.0150872-.0301724-.0603448-.1433176-.1659473-.2715518-.2564646-.399784-.0528022-.0678875-.0980617-.1659474-.1659492-.2338367-.0678874-.0678875-.1734919-.1131451-.2564645-.1810345-.1206897-.0829727-.2338367-.1734899-.3696136-.2262922-.0075426-.0075426-.0150852-.0226297-.0301724-.0226297-.0905172-.0377151-.1885771-.0301725-.2790943-.0528023-.1433195-.0301724-.2790944-.07543-.4224138-.07543-.1433195 0-.286637.0452576-.4224138.07543-.0980599.0226298-.1885771.0150872-.2790944.0528023-.0150871 0-.0226297.0150871-.0301724.0226297-.1433194.0528023-.2640091.1508621-.3846987.2413794-.0829746.0603448-.1810345.0980598-.248922.1659473-.0678874.075432-.1056044.1659492-.1659492.2413793-.0905172.1282342-.1885771.2489238-.2489219.3846987-.0075426.0150872-.0150853.0226298-.0226298.0377151l-16.5420254 42.4450438-26.6724138-68.4008623h11.9482759l17.3415953 45.4245699c.0075426.0150853.0226298.0301724.0301724.0452577.0226298.0603448.0528022.1056044.0829746.1584047.0829727.150862.1734899.2866389.286637.4148711.0528022.0528022.1056044.0980599.1584047.1508621.1282342.1056044.2790962.1961217.4375009.2715517.0377151.0226298.0603449.0528022.1056025.0678875.0226298.0075445.037717 0 .0603448.0150872.2036643.0678874.4224138.1206896.6411653.1206896.2187495 0 .4299564-.0528022.6260761-.1206896.0226298-.0075427.037717 0 .0603449-.0150872.0452595-.0150853.075432-.0452577.113147-.0678875.1584047-.0678874.3017241-.1584047.4299564-.2715517.0603448-.0452576.113147-.0905172.1659492-.1508621.1131471-.113147.2036643-.2564645.286637-.4073266.0301724-.0528022.0678894-.0980618.0905172-.1584066.0075446-.0150852.0150872-.0301724.0226298-.0452577l10.4471978-26.7855608c.0075446-.0226298.0150872-.037715.0226298-.0603448l.0226298-.0452577c.0150853-.0528022.0075426-.113147.0226298-.1659492.0528003-.1810345.0980599-.3545264.0980599-.5431035 0-.1282322-.0377151-.2489219-.0678875-.3771542-.0226298-.1056044-.0150871-.2036642-.0528022-.3092687l-6.6831906-17.1454736h11.9407332l17.349138 45.4245699c.0075426.0150853.0150871.0301724.0226298.0452577.0226298.0603448.0603448.1056044.0905172.1584047.0754301.150862.1659473.2866389.2790944.4148711.0528022.0528022.1056044.0980599.1584046.1508621.1357769.1056044.2790963.1961217.437501.2715517.037715.0226298.0603448.0528022.1056025.0678875.0226298.0075445.037717.0075445.0603448.0150872.2036643.0678874.4224138.1206896.6487079.1206896.0075426 0 .0075426-.0075426.0150852-.0075426.0980618 0 .1961217-.037717.2941815-.0528022.1206897-.0226298.248922-.0226298.3696116-.0678875.0226298-.0075445.0226298-.0150871.0452596-.0226298.1357749-.0528022.2489219-.150862.3696116-.2338367.0829746-.0678874.1885771-.113147.2640091-.1810344.0678874-.0754301.113147-.1659473.1659473-.248922.0905173-.1282322.188579-.2413793.2413793-.3771561.0075446-.0150852.0226298-.0226279.0301724-.037715l8.9838367-23.074354c2.074354-6.7963357-.512931-11.8577586-2.7984918-16.3157313-1.9385771-3.7790963-3.6056025-7.0452596-2.7004301-11.0959056.7693956-3.4471978 3.2661633-5.8609909 6.6756461-6.449354.6034482-.113147 1.2068965-.150862 1.787715-.1282322zm10.0625011 11.2467677c3.017241 6.5926714 4.714439 13.9094827 4.714439 21.6185335 0 20.2532323-11.6163793 37.8362069-28.5355608 46.465517l15.7047424-40.2801722c.9278022-2.149784 7.0377154-16.5646551 8.1163794-27.8038783zm-95.40517255 1.2219818 26.45366425 67.8577587c-18.0355608-8.2068967-30.60991473-26.385775-30.60991473-47.461207 0-7.2338367 1.47844827-14.1282323 4.15625048-20.3965517zm48.82650815 31.137931 15.1540943 38.8696117c-5.0463357 1.636855-10.4170253 2.52694-15.9989219 2.52694-5.0312505 0-9.8890091-.731681-14.4903012-2.059267z" fill="url(#a)"/></svg>