<?xml version="1.0" encoding="UTF-8"?>
<svg width="112px" height="112px" viewBox="0 0 112 112" version="1.1" xmlns="http://www.w3.org/2000/svg" xmlns:xlink="http://www.w3.org/1999/xlink">
    <!-- Generator: Sketch 51.2 (57519) - http://www.bohemiancoding.com/sketch -->
    <title>speed</title>
    <desc>Created with Sketch.</desc>
    <defs>
        <linearGradient x1="50%" y1="94.4449341%" x2="50%" y2="0%" id="linearGradient-1">
            <stop stop-color="#C822FF" offset="0%"></stop>
            <stop stop-color="#1A6DFF" offset="100%"></stop>
        </linearGradient>
    </defs>
    <g id="speed" stroke="none" stroke-width="1" fill="none" fill-rule="evenodd">
        <g id="SVG-Layer" transform="translate(0.000000, 11.000000)" fill="url(#linearGradient-1)" fill-rule="nonzero">
            <g id="surface1">
                <path d="M56.7543103,0.924528302 C42.1734919,0.721550226 28.3846988,6.0290394 17.6961217,16.0200472 C6.44935393,26.5372941 0,41.3772106 0,56.7358491 C0,68.5160677 3.65086207,79.7926007 10.5452596,89.32503 C10.5653745,89.3551001 10.2686788,89.3977002 9.65517241,89.4528302 C6.46443917,89.4528302 3.86206897,92.0464323 3.86206897,95.2264151 C3.86206897,98.4063979 6.46443917,101 9.65517241,101 L102.344828,101 C105.535561,101 108.137931,98.4063979 108.137931,95.2264151 C108.137931,92.0464323 105.535561,89.4528302 102.344828,89.4528302 L101.349138,89.4528302 C109.103448,78.7476415 112.807113,65.7044512 111.849138,52.5936021 C109.850216,24.9811321 87.4245699,2.81146864 59.6810345,1.04481132 C58.7079746,0.977152604 57.7273702,0.939564642 56.7543103,0.924528302 Z M55.962285,4.77358491 C57.1163793,4.77358491 58.2780182,4.81117287 59.4396552,4.88635072 C85.2596988,6.53272502 106.131466,27.1612628 107.994612,52.8792752 C108.899784,65.260909 105.543103,77.0862328 98.3092668,87.0847578 C97.238147,88.5657439 95.488147,89.4528302 93.6174574,89.4528302 L85.9008621,89.4528302 C95.1637931,81.078126 100.413793,69.3730832 100.413793,56.7358491 C100.413793,55.6758554 99.5538803,54.8113208 98.4827586,54.8113208 C97.4116389,54.8113208 96.5517241,55.6758554 96.5517241,56.7358491 C96.5517241,69.5685441 90.637931,81.35628 80.3265081,89.0694276 C80.1907332,89.1821934 80.0926734,89.3175128 79.987069,89.4528302 L32.2090527,89.4528302 C21.7090527,81.8524465 15.4482759,69.6737908 15.4482759,56.7358491 C15.4482759,55.6758554 14.588363,54.8113208 13.5172414,54.8113208 C12.4461217,54.8113208 11.5862069,55.6758554 11.5862069,56.7358491 C11.5862069,69.2528002 16.9267241,81.1157139 26.0991379,89.4528302 L18.3825426,89.4528302 C16.511853,89.4528302 14.7543103,88.5657439 13.6831906,87.0772406 C7.25646648,78.1988507 3.86206897,67.7041573 3.86206897,56.7358491 C3.86206897,42.2267109 9.70797462,28.76253 20.3362069,18.8241446 C30.112069,9.69015426 42.6487079,4.77358491 55.962285,4.77358491 Z M56,14.3962264 C54.9288803,14.3962264 54.0689655,15.2607611 54.0689655,16.3207547 L54.0689655,20.1698113 C54.0689655,21.2298049 54.9288803,22.0943396 56,22.0943396 C57.0711217,22.0943396 57.9310345,21.2298049 57.9310345,20.1698113 L57.9310345,16.3207547 C57.9310345,15.2607611 57.0711217,14.3962264 56,14.3962264 Z M45.5226298,15.8170691 C45.2737079,15.7869983 45.0096988,15.8020347 44.7532323,15.8696934 C43.7273702,16.1478474 43.1088367,17.2003238 43.387931,18.2227295 L44.3836207,21.9439858 C44.6174574,22.8085205 45.3943975,23.3723477 46.2543103,23.3723477 C46.4202596,23.3723477 46.5862069,23.3573113 46.7596988,23.304687 C47.7855608,23.0340502 48.3965517,21.9740566 48.125,20.9516509 L47.1217677,17.2303946 C46.9105608,16.4560741 46.2693975,15.9223177 45.5226298,15.8170691 Z M66.4849148,15.8245882 C65.738147,15.9298349 65.0894392,16.4635913 64.8782323,17.2303946 L63.875,20.9516509 C63.6034483,21.9740566 64.2144392,23.0340502 65.2403012,23.304687 C65.4137931,23.3497941 65.5797423,23.3723477 65.7456897,23.3723477 C66.5980599,23.3723477 67.3825426,22.8085205 67.6163793,21.9439858 L68.612069,18.2227295 C68.8911633,17.2003238 68.2726298,16.1478474 67.2467677,15.8696934 C66.9903012,15.8020347 66.7338367,15.7869983 66.4849148,15.8245882 Z M35,19.9517988 C34.7510781,19.9818696 34.5021561,20.0645646 34.2758621,20.1998821 C33.3480599,20.7261212 33.0387931,21.9063979 33.5743539,22.8235549 L35.5053884,26.1538915 C35.8599148,26.7778602 36.5086207,27.1161557 37.1724138,27.1161557 C37.5043103,27.1161557 37.8362069,27.0409797 38.137931,26.8680724 C39.0657332,26.334316 39.375,25.1540394 38.8394392,24.2293632 L36.9084047,20.8990266 C36.5086207,20.2149184 35.7467677,19.8615866 35,19.9517988 Z M77,19.959316 C76.2456897,19.8615866 75.4838367,20.2149184 75.0915953,20.8990266 L73.1605608,24.2368804 C72.625,25.1540394 72.9342668,26.334316 73.862069,26.8680724 C74.1637931,27.0409797 74.4956897,27.1236729 74.8275862,27.1236729 C75.4913793,27.1236729 76.1400872,26.7778602 76.4946116,26.1614087 L78.4256461,22.8235549 C78.9612069,21.9063979 78.6443975,20.7336385 77.7241379,20.1998821 C77.4903012,20.0645646 77.2413793,19.9893868 77,19.959316 Z M26.6422414,26.5147406 C26.1519401,26.5147406 25.6540943,26.7026823 25.2769401,27.0785677 C24.5226298,27.8303366 24.5226298,29.0482012 25.2769401,29.79997 L28.0075426,32.5213743 C28.3846988,32.8972578 28.875,33.0852014 29.3728458,33.0852014 C29.8706897,33.0852014 30.3609909,32.8972578 30.738147,32.5213743 C31.4924574,31.7696054 31.4924574,30.5517389 30.738147,29.79997 L28.0075426,27.0785677 C27.6303884,26.7026823 27.1325426,26.5147406 26.6422414,26.5147406 Z M85.3577586,26.5147406 C84.8674574,26.5147406 84.3696116,26.7026823 83.9924574,27.0785677 L81.261853,29.79997 C80.5075426,30.5517389 80.5075426,31.7696054 81.261853,32.5213743 C81.6390091,32.8972578 82.1293103,33.0852014 82.6271561,33.0852014 C83.125,33.0852014 83.6153012,32.8972578 83.9924574,32.5213743 L86.7230599,29.79997 C87.4773702,29.0482012 87.4773702,27.8303366 86.7230599,27.0785677 C86.3459057,26.7026823 85.8480599,26.5147406 85.3577586,26.5147406 Z M20.2834047,35.099942 C19.5366389,35.0097297 18.774784,35.3555425 18.375,36.0471698 C17.8394392,36.9643288 18.1562505,38.1446054 19.0765081,38.6708427 L22.4181034,40.595371 C22.7273702,40.7757955 23.0592668,40.8584906 23.3836207,40.8584906 C24.0549564,40.8584906 24.7036643,40.5126778 25.0657332,39.8962264 C25.5937495,38.9790694 25.2769401,37.7987908 24.3491379,37.2725535 L21.0075426,35.3480252 C20.7812505,35.2127059 20.5323286,35.1300128 20.2834047,35.099942 Z M91.7090527,35.099942 C91.4601288,35.1300128 91.2112069,35.2127059 90.9849148,35.3480252 L87.6433194,37.2725535 C86.7230599,37.7987908 86.4062505,38.9790694 86.9342668,39.8962264 C87.2963357,40.5126778 87.9450436,40.8584906 88.6163793,40.8584906 C88.9407332,40.8584906 89.2726298,40.7757955 89.5743539,40.595371 L92.9159492,38.6708427 C93.8437495,38.1446054 94.1605608,36.9643288 93.625,36.0471698 C93.225216,35.3555425 92.4558185,35.0097297 91.7090527,35.099942 Z M75.3103448,35.5660377 C74.8200436,35.5660377 74.3221978,35.7539795 73.9450436,36.1298649 L58.4816806,51.5411257 C57.7273702,51.1802766 56.8900872,50.9622642 56,50.9622642 C52.8092668,50.9622642 50.2068966,53.5558663 50.2068966,56.7358491 C50.2068966,59.9158318 52.8092668,62.509434 56,62.509434 C59.1907332,62.509434 61.7931034,59.9158318 61.7931034,56.7358491 C61.7931034,55.8487628 61.5743539,55.0142988 61.212285,54.26253 L76.6756461,38.8512672 C77.4299564,38.0994983 77.4299564,36.8816337 76.6756461,36.1298649 C76.2984919,35.7539795 75.8006461,35.5660377 75.3103448,35.5660377 Z M15.6293103,45.0759134 C14.8900872,45.181162 14.2413793,45.7224356 14.0301724,46.4892389 C13.7586207,47.5116446 14.3696116,48.5716401 15.4030182,48.8497941 L19.1293103,49.8496462 C19.2952596,49.8872342 19.4612069,49.9097877 19.6346988,49.9097877 C20.4795263,49.9097877 21.2640091,49.3459606 21.4903012,48.4889451 C21.7693975,47.4590222 21.1584047,46.3990266 20.125,46.1208726 L16.3987079,45.1285377 C16.1422414,45.060879 15.8782323,45.0458427 15.6293103,45.0759134 Z M96.3706897,45.0759134 C96.1217677,45.0458427 95.8653012,45.060879 95.6088367,45.1285377 L91.875,46.1208726 C90.8415953,46.3990266 90.2306044,47.4590222 90.5096988,48.4889451 C90.7359909,49.3459606 91.5204737,49.9097877 92.3728458,49.9097877 C92.5387931,49.9097877 92.7047423,49.8947533 92.8706897,49.8496462 L96.6045263,48.8497941 C97.6303884,48.5716401 98.2489219,47.5191637 97.9698276,46.4892389 C97.7661633,45.7149184 97.1174574,45.181162 96.3706897,45.0759134 Z M40.5517241,70.2075472 C39.4806044,70.2075472 38.6206897,71.0720818 38.6206897,72.1320755 C38.6206897,73.1920691 39.4806044,74.0566038 40.5517241,74.0566038 L71.4482759,74.0566038 C72.5193975,74.0566038 73.3793103,73.1920691 73.3793103,72.1320755 C73.3793103,71.0720818 72.5193975,70.2075472 71.4482759,70.2075472 L40.5517241,70.2075472 Z M48.2758621,77.9056604 C47.2047423,77.9056604 46.3448276,78.7701951 46.3448276,79.8301887 C46.3448276,80.8901823 47.2047423,81.754717 48.2758621,81.754717 L63.7241379,81.754717 C64.7952596,81.754717 65.6551724,80.8901823 65.6551724,79.8301887 C65.6551724,78.7701951 64.7952596,77.9056604 63.7241379,77.9056604 L48.2758621,77.9056604 Z M9.65517241,93.3018868 L31.5301724,93.3018868 C31.5704023,93.3068983 55.1752874,93.3068983 102.344828,93.3018868 C103.408405,93.3018868 104.275862,94.1664215 104.275862,95.2264151 C104.275862,96.2864087 103.408405,97.1509434 102.344828,97.1509434 L9.65517241,97.1509434 C8.59159531,97.1509434 7.72413793,96.2864087 7.72413793,95.2264151 C7.72413793,94.1664215 8.59159531,93.3018868 9.65517241,93.3018868 Z" id="Shape"></path>
            </g>
        </g>
    </g>
</svg>