<svg height="112" viewBox="0 0 112 112" width="112" xmlns="http://www.w3.org/2000/svg" xmlns:xlink="http://www.w3.org/1999/xlink"><linearGradient id="a" x1="50%" x2="50%" y1="94.444934%" y2="0%"><stop offset="0" stop-color="#c822ff"/><stop offset="1" stop-color="#1a6dff"/></linearGradient><path d="m6 0c-3.304688 0-6 2.695312-6 6v84c0 3.304688 2.695312 6 6 6h100c3.304688 0 6-2.695312 6-6v-84c0-3.304688-2.695312-6-6-6zm0 4h100c1.101562 0 2 .898438 2 2v84c0 1.101562-.898438 2-2 2h-100c-1.101562 0-2-.898438-2-2v-66h82c1.109376 0 2-.898438 2-2s-.890624-2-2-2h-82v-14c0-1.101562.898438-2 2-2zm6 4c-1.109374 0-2 .898438-2 2v4c0 1.101562.890626 2 2 2 1.109376 0 2-.898438 2-2v-4c0-1.101562-.890624-2-2-2zm10 0c-1.109374 0-2 .898438-2 2v4c0 1.101562.890626 2 2 2 1.109376 0 2-.898438 2-2v-4c0-1.101562-.890624-2-2-2zm10 0c-1.109374 0-2 .898438-2 2v4c0 1.101562.890626 2 2 2 1.109376 0 2-.898438 2-2v-4c0-1.101562-.890624-2-2-2zm10 0c-1.109374 0-2 .898438-2 2v4c0 1.101562.890626 2 2 2 1.109376 0 2-.898438 2-2v-4c0-1.101562-.890624-2-2-2zm10 0c-1.109374 0-2 .898438-2 2v4c0 1.101562.890626 2 2 2 1.109376 0 2-.898438 2-2v-4c0-1.101562-.890624-2-2-2zm10 0c-1.109374 0-2 .898438-2 2v4c0 1.101562.890626 2 2 2 1.109376 0 2-.898438 2-2v-4c0-1.101562-.890624-2-2-2zm10 0c-1.109374 0-2 .898438-2 2v4c0 1.101562.890626 2 2 2 1.109376 0 2-.898438 2-2v-4c0-1.101562-.890624-2-2-2zm10 0c-1.109374 0-2 .898438-2 2v4c0 1.101562.890626 2 2 2 1.109376 0 2-.898438 2-2v-4c0-1.101562-.890624-2-2-2zm10 0c-1.109374 0-2 .898438-2 2v4c0 1.101562.890626 2 2 2 1.109376 0 2-.898438 2-2v-4c0-1.101562-.890624-2-2-2zm10 0c-1.109374 0-2 .898438-2 2v4c0 1.101562.890626 2 2 2 1.109376 0 2-.898438 2-2v-4c0-1.101562-.890624-2-2-2zm-8 12c-1.109374 0-2 .898438-2 2s.890626 2 2 2h8c1.109376 0 2-.898438 2-2s-.890624-2-2-2zm-76 12c-1.109374 0-2 .898438-2 2v8c0 1.101562.890626 2 2 2h76c1.109376 0 2-.898438 2-2v-8c0-1.101562-.890624-2-2-2zm2 4h72v4h-72zm-2 16c-1.109374 0-2 .898438-2 2s.890626 2 2 2h32c1.109376 0 2-.898438 2-2s-.890624-2-2-2zm44 0c-1.109374 0-2 .898438-2 2v24c0 1.101562.890626 2 2 2h32c1.109376 0 2-.898438 2-2v-24c0-1.101562-.890624-2-2-2zm2 4h28v20h-28zm-46 4c-1.109374 0-2 .898438-2 2s.890626 2 2 2h16c1.109376 0 2-.898438 2-2s-.890624-2-2-2zm24 0c-1.109374 0-2 .898438-2 2s.890626 2 2 2h4c1.109376 0 2-.898438 2-2s-.890624-2-2-2zm-24 8c-1.109374 0-2 .898438-2 2s.890626 2 2 2h32c1.109376 0 2-.898438 2-2s-.890624-2-2-2zm0 8c-1.109374 0-2 .898438-2 2s.890626 2 2 2h12c1.109376 0 2-.898438 2-2s-.890624-2-2-2z" fill="url(#a)" transform="translate(0 16)"/></svg>