<svg id="Layer_1" data-name="Layer 1" xmlns="http://www.w3.org/2000/svg" xmlns:xlink="http://www.w3.org/1999/xlink" width="150" height="100" viewBox="0 0 150 100"><defs><linearGradient id="linear-gradient" x1="85.72" y1="281.8" x2="85.87" y2="281.8" gradientTransform="matrix(551.66, -293.32, -293.32, -551.66, 35425.45, 180659.28)" gradientUnits="userSpaceOnUse"><stop offset="0" stop-color="#b5121b"/><stop offset="0.7" stop-color="#be3d2e"/><stop offset="1" stop-color="#f6e2da"/></linearGradient></defs><title>logo_capital-one</title><g id="layer1"><g id="g5061"><g id="g4210"><g id="g4212"><g id="g4218"><path id="path4220" d="M102.75,64.34l-.13.07-10.8,5-9.09,5.79c8-3.59,14.43-6.76,20.56-10-.19-.25-.37-.52-.54-.79" style="fill:#b5121b"/></g><g id="g4222"><path id="path4224" d="M144.33,29.6l-10.06,9.5-9.84,12.25a10.21,10.21,0,0,1,.27,1.38l.1-.06C140.58,43,149.14,36.89,144.33,29.6" style="fill:#b5121b"/></g></g></g><g id="g4226"><g id="g4228"><g id="g4234"><g id="g4236"><path id="path4248" d="M41.46,33.05l-.64.14a.24.24,0,0,0-.2.28h0a.24.24,0,0,0,.28.2h0l.63-.12c22.74-4,70-9.66,80.2.42h0c3.1,3.08,2.36,7.05-1.24,11.72h0a9.34,9.34,0,0,1,4,5.67h0c11.46-7.63,19.85-15,20.13-20.09h0v-.5a4.09,4.09,0,0,0-1.11-2.6h0c-3.28-3.61-12.37-5-24.07-5h0c-24.15,0-59.45,5.83-77.93,9.86M101.68,62c-6.36,4.5-13.9,9.23-22,14.2h0l-.32.19a.24.24,0,0,0-.06.33h0a.24.24,0,0,0,.34.06h0l.27-.14c6.88-3.59,14.77-7.85,22.72-12.22h0l.12-.07h0a10,10,0,0,1-1-2.37h0l0,0" style="fill:url(#linear-gradient)"/></g></g></g></g><g id="g4274"><path id="path4276" d="M147.91,62.53l.48.32a7.64,7.64,0,0,1-6.62,4.49,4.33,4.33,0,0,1-4.44-4.57c-.2-5.35,4.81-10.31,8.91-10.31,1.76,0,3.39.77,3.46,2.66.16,4.25-5.81,5.55-9.75,5.64a5.08,5.08,0,0,0-.15,1.57,3.14,3.14,0,0,0,3.34,3.24c1.9,0,3.81-1.53,4.77-3m-.54-7.68c0-1-.53-1.68-1.57-1.68-2.5,0-5.16,4.9-5.62,6.88,4.1,0,7.29-2.45,7.19-5.2" style="fill:#005288"/></g><g id="g4278"><path id="path4280" d="M123.5,54.7a12.79,12.79,0,0,1,1.36-.12c.45,0,.87.09.89.53,0,.26-.47,2.16-.57,2.6l-1,4.19c-.38,1.72-.8,3.51-1.17,4.93h2.44l1.38-6.64c4.19-4.37,5.8-5.79,6.79-5.79a.71.71,0,0,1,.77.77,13.67,13.67,0,0,1-.61,3L132.42,63a10.07,10.07,0,0,0-.53,2.78,1.46,1.46,0,0,0,1.64,1.53c1.79,0,3.08-1.86,4.21-3.69l-.36-.53c-.46.73-1.49,2.27-2.32,2.27-.27,0-.52-.17-.52-.62a6.87,6.87,0,0,1,.38-2l1.55-5.68a14,14,0,0,0,.61-3.1,1.45,1.45,0,0,0-1.6-1.55c-1.61,0-3.75,1.17-8.27,6.37h-.06l.57-2.54c.31-1.38.61-2.83.9-3.83a39.08,39.08,0,0,1-5.14,1.44Z" style="fill:#005288"/></g><g id="g4282"><path id="path4284" d="M102.47,58.86c-.23-6.64,5-13.43,12.53-13.43,5.06,0,8.36,3.37,8.55,8.52.24,7-4.62,13.44-12.53,13.44-5.06,0-8.37-3.36-8.55-8.53m3.29.21c.13,3.89,2.59,7.08,5.8,7.08,6.23,0,8.87-7.64,8.69-12.75-.13-3.9-2.66-7.08-5.87-7.08-5.35,0-8.81,7.61-8.62,12.75" style="fill:#005288"/></g><g id="g4286"><path id="path4288" d="M98.59,62.86H92.38l3.12-17.4,6,.17Z" style="fill:#005288"/></g><g id="g4290"><path id="path4292" d="M92.4,53a13.78,13.78,0,0,1-.3,2.08L91,61.37a1.17,1.17,0,0,0,.62,1.29l0,.21-6.36,0,0-1.59a12.57,12.57,0,0,1-3.06,1.3,10.78,10.78,0,0,1-3.06.38c-2.06,0-3.23-.21-4-.93s-1.23-1.22-1.18-2.23A3.31,3.31,0,0,1,74.59,58a4.6,4.6,0,0,1,1.7-1.18,9.64,9.64,0,0,1,2.54-.73c1.14-.17,2.71-.37,4.81-.54a7.24,7.24,0,0,0,2.08-.46c.44-.17.62-.37.68-.72.11-.63-.09-1-.93-1.18-2.31-.45-6.59.3-8.81.85l1.2-3.25a57.73,57.73,0,0,1,8.54-.7c4.58,0,6,1.31,6,3m-6.56,4.1c-.28.09-.63.19-1.06.29s-1.22.23-2.37.42a3.88,3.88,0,0,0-1.64.51,1.26,1.26,0,0,0-.53.8.79.79,0,0,0,.35.83,2.82,2.82,0,0,0,1.53.31,5.28,5.28,0,0,0,1.57-.23A3.79,3.79,0,0,0,85,59.38a2,2,0,0,0,.55-.81,14,14,0,0,0,.32-1.43" style="fill:#005288"/></g><g id="g4294"><path id="path4296" d="M67.55,50.33,68,47.79l6.37-1.39-.68,3.93H76.8l-.59,2.51h-3l-1.85,10s-6.14,0-6.16,0l1.83-10H64.7l.47-2.53Z" style="fill:#005288"/></g><g id="g4298"><path id="path4300" d="M58.43,47.51c.18-1,1.8-1.85,3.61-1.85s3.13.83,3,1.85-1.81,1.86-3.62,1.86-3.13-.83-3-1.86M55.89,62.87,58.1,50.4h6.09L62,62.87Z" style="fill:#005288"/></g><g id="g4302"><path id="path4304" d="M36.73,67.17l3-16.71H45l-.41,2.14A5,5,0,0,1,46.86,51a9.17,9.17,0,0,1,3.46-.74,6.41,6.41,0,0,1,3.3.62,4.38,4.38,0,0,1,2.16,2.37,6.08,6.08,0,0,1,.27,3.39,7.38,7.38,0,0,1-3,4.88A8,8,0,0,1,47.83,63a8.33,8.33,0,0,1-1.88-.2,4.05,4.05,0,0,1-1.21-.49,6.19,6.19,0,0,1-1-.91l-1,5.73ZM47.82,53.32a3.54,3.54,0,0,0-2.16.73,3.21,3.21,0,0,0-1.2,2.13,2.68,2.68,0,0,0,.35,2.35,2.37,2.37,0,0,0,1.88.73A3.64,3.64,0,0,0,48.24,59a3.17,3.17,0,0,0,1.2-1,4.27,4.27,0,0,0,.67-1.64,2.5,2.5,0,0,0-.43-2.21,2.36,2.36,0,0,0-1.86-.75" style="fill:#005288"/></g><g id="g4314"><path id="path4316" d="M37.44,53a17.5,17.5,0,0,1-.3,2.08L36,61.34a1.14,1.14,0,0,0,.62,1.28l0,.25H30.25l-.05-1.59a12.84,12.84,0,0,1-3.06,1.31,11.14,11.14,0,0,1-3.05.37C22,63,20.85,62.74,20,62a2.56,2.56,0,0,1-1.19-2.24,3.56,3.56,0,0,1,.77-1.85,4.6,4.6,0,0,1,1.7-1.18A8.94,8.94,0,0,1,23.87,56c1.13-.18,2.7-.37,4.8-.54A7.14,7.14,0,0,0,30.76,55c.44-.17.61-.36.67-.72.12-.64-.08-1-.94-1.17-2.29-.46-6.59.29-8.8.84l1.2-3.25a59,59,0,0,1,8.55-.7c4.58,0,6,1.31,6,3m-6.57,4.09a7.31,7.31,0,0,1-1.06.29c-.43.1-1.22.24-2.36.42a4.09,4.09,0,0,0-1.65.51,1.22,1.22,0,0,0-.52.81.8.8,0,0,0,.34.83,2.81,2.81,0,0,0,1.53.32A5.26,5.26,0,0,0,28.72,60,3.72,3.72,0,0,0,30,59.35a1.91,1.91,0,0,0,.55-.8,11.46,11.46,0,0,0,.32-1.44" style="fill:#005288"/></g><g id="g4318"><path id="path4320" d="M18,58.39a22.45,22.45,0,0,1-5.06.54c-2.91,0-5.23-1.45-5.1-4.1C8,53.07,10,49.35,15.35,49.35a8.63,8.63,0,0,1,4.74,1.3l.77-4.33a14.56,14.56,0,0,0-6-1C7.87,45.37,1.18,48.54.36,55s7.14,8.18,10.69,8.17c2,0,4.17-.09,6.16-.3Z" style="fill:#005288"/></g></g></g></svg>